<?xml version="1.0" encoding="UTF-8"?>
<svg width="104px" height="150px" viewBox="0 0 104 150" version="1.1" xmlns="http://www.w3.org/2000/svg" xmlns:xlink="http://www.w3.org/1999/xlink">
    <!-- Generator: Sketch 60 (88103) - https://sketch.com -->
    <title>worker</title>
    <desc>Created with Sketch.</desc>
    <g id="Page-1" stroke="none" stroke-width="1" fill="none" fill-rule="evenodd">
        <g id="Главная-v1" transform="translate(-355.000000, -1026.000000)" fill-rule="nonzero">
            <g id="Group-29" transform="translate(0.000000, 798.000000)">
                <g id="Group-19" transform="translate(222.000000, 228.000000)">
                    <g id="worker-2" transform="translate(133.000000, 0.000000)">
                        <g id="worker">
                            <path d="M103.565625,115.61875 L103.565625,138.63125 L93.225,138.63125 L93.225,115.484375 L90.09375,115.484375 L90.09375,101.4 L95.503125,103.709375 C100.084995,105.999921 103.140888,110.513877 103.565625,115.61875 L103.565625,115.61875 Z" id="Path" fill="#F8EC7D"></path>
                            <polygon id="Path" fill="#E48E66" points="87.15625 43.44375 43.571875 43.44375 37.053125 43.44375 31.503125 43.44375 31.503125 35.478125 35.653125 35.478125 96.28125 35.478125 100.43125 35.478125 100.43125 43.44375 94.74375 43.44375"></polygon>
                            <path d="M53.58125,87.2625 C44.2652542,82.5936907 38.3815646,73.0673138 38.378125,62.646875 L38.378125,62.603125 C36.4694722,62.2644293 34.785979,61.1512071 33.7270186,59.5275467 C32.6680581,57.9038863 32.3279943,55.914472 32.7875,54.03125 C33.3264267,51.813051 35.230406,50.1927772 37.50625,50.015625 L37.5375,50.009375 C37.6895037,50.656142 38.1179922,51.2034646 38.709375,51.50625 L42.00625,53.196875 C42.1741465,53.2831941 42.374051,53.2800058 42.5391094,53.1883764 C42.7041678,53.096747 42.8125932,52.9287712 42.828125,52.740625 L43.571875,43.44375 L87.15625,43.44375 C87.4963523,45.1985269 87.9504393,46.929277 88.515625,48.625 L90.175,53.60625 C90.2359139,53.7887557 90.3854701,53.9277498 90.5719409,53.9751576 C90.7584116,54.0225654 90.9561921,53.9718773 91.096875,53.840625 L93.4125,51.678125 C93.8844793,51.2406324 94.1903582,50.6531681 94.278125,50.015625 L94.290625,50.015625 C96.5593052,50.2006149 98.4537996,51.8192488 98.990625,54.03125 C99.4522587,55.9119457 99.1150027,57.8998322 98.0589128,59.5230376 C97.0028229,61.1462431 95.3220716,62.2600247 93.415625,62.6 L93.415625,62.646875 C93.4119352,72.1847497 88.4715748,81.0411362 80.3578662,86.054997 C72.2441576,91.0688577 62.1133122,91.5257125 53.58125,87.2625 L53.58125,87.2625 Z" id="Path" fill="#F7CAA5"></path>
                            <path d="M96.28125,35.153125 L96.28125,35.478125 L35.653125,35.478125 L35.653125,35.20625 C35.653125,22.409375 42.734375,11.19375 52.975,6 L52.975,9.871875 C52.9752465,17.9787117 58.1939399,25.1640339 65.903125,27.671875 L66.328125,27.8125 C73.8838822,25.2125649 78.956179,18.103065 78.95625,10.1125 L78.95625,5.99375 C89.196875,11.175 96.28125,22.35 96.28125,35.153125 L96.28125,35.153125 Z" id="Path" fill="#F8EC7D"></path>
                            <path d="M94.74375,43.44375 L94.303125,49.809375 C94.296875,49.878125 94.290625,49.946875 94.278125,50.015625 C94.1903582,50.6531681 93.8844793,51.2406324 93.4125,51.678125 L91.096875,53.840625 C90.9561921,53.9718773 90.7584116,54.0225654 90.5719409,53.9751576 C90.3854701,53.9277498 90.2359139,53.7887557 90.175,53.60625 L88.515625,48.625 C87.9504393,46.929277 87.4963523,45.1985269 87.15625,43.44375 L94.74375,43.44375 Z" id="Path" fill="#4B5D63"></path>
                            <path d="M93.225,115.484375 L93.225,138.63125 L45.290625,138.63125 C49.784375,133.98125 53.29375,127.7 53.29375,119.434375 L53.29375,115.484375 L93.225,115.484375 Z" id="Path" fill="#E48E66"></path>
                            <polygon id="Path" fill="#CC7350" points="90.09375 101.4 90.09375 115.484375 83.825 115.484375 83.825 98.725"></polygon>
                            <path d="M83.825,98.725 L83.825,115.484375 L53.29375,115.484375 L53.29375,100.196875 L53.11875,100.121875 C51.7645833,99.540625 50.421875,98.9354167 49.090625,98.30625 L53.525,96.415625 C61.3650351,100.30001 70.5693399,100.30001 78.409375,96.415625 L83.825,98.725 Z" id="Path" fill="#F8EC7D"></path>
                            <path d="M78.95625,5.99375 L78.95625,10.1125 C78.95625,18.103065 73.8838822,25.2125649 66.328125,27.8125 L65.903125,27.671875 C58.1939399,25.1640339 52.975,17.9787117 52.975,9.871875 L52.975,6 C54.7529897,5.09421107 56.6216925,4.37878282 58.55,3.865625 L58.146875,-2.13162821e-14 L73.784375,-2.13162821e-14 L73.384375,3.865625 C75.3108561,4.37857323 77.1783302,5.09183729 78.95625,5.99375 L78.95625,5.99375 Z" id="Path" fill="#CC7350"></path>
                            <path d="M78.353125,96.390625 L78.409375,96.415625 C70.5693399,100.30001 61.3650351,100.30001 53.525,96.415625 L53.58125,96.390625 L53.58125,87.2625 C61.3850093,91.1584778 70.572105,91.1318216 78.353125,87.190625 L78.353125,96.390625 Z" id="Path" fill="#EDB288"></path>
                            <path d="M45.290625,138.63125 C37.325,146.878125 26.278125,150 26.278125,150 C26.278125,150 0.184375,142.36875 0.184375,119.434375 L0.184375,100.196875 L0.359375,100.121875 C5.03849413,98.1086355 9.59437422,95.8202605 14.003125,93.26875 C18.4108088,90.7158869 22.6630781,87.9036499 26.7375,84.846875 C33.7135934,90.0786263 41.2030758,94.5882307 49.090625,98.30625 C50.421875,98.934375 51.7645833,99.5395833 53.11875,100.121875 L53.29375,100.196875 L53.29375,119.434375 C53.29375,127.7 49.784375,133.98125 45.290625,138.63125 L45.290625,138.63125 Z" id="Path" fill="#6FE3FF"></path>
                            <path d="M43.571875,43.44375 L42.828125,52.740625 C42.8125932,52.9287712 42.7041678,53.096747 42.5391094,53.1883764 C42.374051,53.2800058 42.1741465,53.2831941 42.00625,53.196875 L38.709375,51.50625 C38.1179922,51.2034646 37.6895037,50.656142 37.5375,50.009375 C37.5089193,49.8871042 37.4901099,49.7627537 37.48125,49.6375 L37.053125,43.44375 L43.571875,43.44375 Z" id="Path" fill="#4B5D63"></path>
                            <g id="Group" transform="translate(60.625000, 7.500000)" fill="#F8EC7D">
                                <path d="M26.334375,116.753125 C25.2988411,116.753125 24.459375,115.913659 24.459375,114.878125 L24.459375,112.996875 C24.459375,111.961341 25.2988411,111.121875 26.334375,111.121875 C27.3699089,111.121875 28.209375,111.961341 28.209375,112.996875 L28.209375,114.878125 C28.209375,115.913659 27.3699089,116.753125 26.334375,116.753125 Z" id="Path"></path>
                                <path d="M9.396875,10.825 L2.0125,10.825 C0.976966094,10.825 0.1375,9.98553391 0.1375,8.95 C0.1375,7.91446609 0.976966094,7.075 2.0125,7.075 L9.396875,7.075 C10.4324089,7.075 11.271875,7.91446609 11.271875,8.95 C11.271875,9.98553391 10.4324089,10.825 9.396875,10.825 Z" id="Path"></path>
                                <path d="M9.396875,4.015625 L2.0125,4.015625 C0.976966094,4.015625 0.1375,3.17615891 0.1375,2.140625 C0.1375,1.10509109 0.976966094,0.265625 2.0125,0.265625 L9.396875,0.265625 C10.4324089,0.265625 11.271875,1.10509109 11.271875,2.140625 C11.271875,3.17615891 10.4324089,4.015625 9.396875,4.015625 Z" id="Path"></path>
                            </g>
                            <path d="M23.1875,126.190628 C22.6635048,126.191273 22.1632522,125.97215 21.8084375,125.586562 L13.8621875,116.96875 C13.1601818,116.20746 13.2082412,115.021224 13.9695312,114.319219 C14.7308213,113.617213 15.9170568,113.665272 16.6190625,114.426562 L23.299375,121.67125 L36.9709375,109.149062 C37.7346438,108.449559 38.9208093,108.501606 39.6203125,109.265313 C40.3198156,110.029019 40.2677687,111.215184 39.5040625,111.914687 L24.4540625,125.69875 C24.1085789,126.015871 23.6564605,126.191453 23.1875,126.190628 L23.1875,126.190628 Z" id="Path" fill="#2561A1"></path>
                        </g>
                    </g>
                </g>
            </g>
        </g>
    </g>
</svg>