<?xml version="1.0" encoding="UTF-8"?>
<svg width="127px" height="150px" viewBox="0 0 127 150" version="1.1" xmlns="http://www.w3.org/2000/svg" xmlns:xlink="http://www.w3.org/1999/xlink">
    <!-- Generator: Sketch 60 (88103) - https://sketch.com -->
    <title>medal (1)</title>
    <desc>Created with Sketch.</desc>
    <g id="Page-1" stroke="none" stroke-width="1" fill="none" fill-rule="evenodd">
        <g id="Главная-v1" transform="translate(-737.000000, -1026.000000)" fill-rule="nonzero">
            <g id="Group-29" transform="translate(0.000000, 798.000000)">
                <g id="Group-19" transform="translate(613.000000, 228.000000)">
                    <g id="medal-(1)-2" transform="translate(124.000000, 0.000000)">
                        <g id="medal-(1)">
                            <polygon id="Path" fill="#E95454" points="32.915625 64.81875 0.1734375 126.50625 29.90625 123.759375 44.296875 149.925 77.0390625 88.2375"></polygon>
                            <g id="Group" transform="translate(26.953125, 64.746094)" fill="#ED6362">
                                <path d="M9.7125,67.2164063 C10.63125,65.2429688 9.6703125,62.8851563 7.7484375,61.8632812 L5.8640625,60.8601563 C3.9796875,59.7867188 3.2625,57.4007813 4.2890625,55.4695313 C5.3296875,53.5054688 7.7765625,52.7554688 9.740625,53.7960938 L15.065625,56.6226563 C16.7109375,57.4945313 18.7734375,56.8617188 19.621875,55.2070313 L19.753125,54.9539063 C20.728125,53.3929688 20.1515625,51.3304688 18.5296875,50.4726563 L2.6015625,42.0210938 C0.6609375,40.9898438 -0.290625,38.6414063 0.6140625,36.6632813 C1.6125,34.5585938 4.134375,33.7289063 6.1640625,34.8070313 L20.9390625,42.6492188 C22.584375,43.5210938 24.646875,42.8882813 25.51875,41.2429688 L25.603125,41.0273438 L25.6265625,40.9804688 C26.56875,39.2554688 25.9078125,37.0898438 24.16875,36.1664063 L15.88125,31.7695313 C13.940625,30.7382813 12.9890625,28.3898438 13.9078125,26.3882813 C14.896875,24.3070313 17.428125,23.4539063 19.4578125,24.5320313 L28.6125,29.3929688 C30.3234375,30.3023438 32.3671875,29.5429688 33.253125,27.8179688 C33.2671875,27.7945313 33.2671875,27.7945313 33.2765625,27.7710938 C33.290625,27.7476563 33.290625,27.7476563 33.3,27.7242188 C34.2328125,26.0226563 33.7171875,23.9039063 32.0015625,22.9992188 L22.125,17.7585938 C20.2078125,16.7414063 19.25625,14.3929688 20.1609375,12.4148438 C21.159375,10.3101563 23.68125,9.48046875 25.7109375,10.5585938 L50.0765625,23.4914063 L17.334375,85.1789063 L8.3109375,68.7773438 C8.8921875,68.3835937 9.3984375,67.8960938 9.7125,67.2164063 Z" id="Path"></path>
                                <polygon id="Path" points="67.209375 0.07265625 99.9515625 61.7601562 70.21875 59.0132813 55.828125 85.1789063 23.0859375 23.4914063"></polygon>
                            </g>
                            <path d="M90.4125,131.9625 C89.49375,129.989062 90.4546875,127.63125 92.3765625,126.609375 L94.2609375,125.60625 C96.1453125,124.532813 96.8625,122.146875 95.8359375,120.215625 C94.7953125,118.251563 92.3484375,117.501563 90.384375,118.542188 L85.059375,121.36875 C83.4140625,122.240625 81.3515625,121.607813 80.503125,119.953125 L80.371875,119.7 C79.396875,118.139063 79.9734375,116.076563 81.5953125,115.21875 L97.528125,106.7625 C99.46875,105.73125 100.420312,103.382813 99.515625,101.404688 C98.5171875,99.3 95.9953125,98.4703125 93.965625,99.5484375 L79.190625,107.390625 C77.5453125,108.2625 75.4828125,107.629688 74.6109375,105.984375 L74.5265625,105.76875 L74.503125,105.721875 C73.5609375,103.996875 74.221875,101.83125 75.9609375,100.907813 L84.2484375,96.5109375 C86.1890625,95.4796875 87.140625,93.13125 86.221875,91.1296875 C85.2328125,89.0484375 82.7015625,88.1953125 80.671875,89.2734375 L71.5078125,94.14375 C69.796875,95.053125 67.753125,94.29375 66.8671875,92.56875 C66.853125,92.5453125 66.853125,92.5453125 66.84375,92.521875 C66.8296875,92.4984375 66.8296875,92.4984375 66.8203125,92.475 C65.8875,90.7734375 66.403125,88.6546875 68.11875,87.75 L77.9953125,82.509375 C79.9125,81.4921875 80.8640625,79.14375 79.959375,77.165625 C78.9609375,75.0609375 76.4390625,74.23125 74.409375,75.309375 L50.04375,88.2421875 L82.7859375,149.929688 L91.809375,133.528125 C91.2328125,133.129687 90.7265625,132.642188 90.4125,131.9625 Z" id="Path" fill="#E95454"></path>
                            <circle id="Oval" fill="#FFCC5B" cx="63.5390625" cy="54.7078125" r="54.7078125"></circle>
                            <path d="M70.959375,48.43125 L36.290625,48.43125 C33.5953125,48.43125 31.3828125,46.21875 31.3828125,43.5234375 L31.4203125,43.1859375 L31.4203125,43.1109375 C31.3828125,40.265625 33.703125,37.940625 36.553125,37.940625 L60.58125,37.940625 C63.7640625,37.940625 66.5765625,35.5828125 66.7640625,32.3953125 C66.9140625,29.0625 64.25625,26.25 60.91875,26.25 L35.465625,26.25 C32.6578125,26.25 30.5578125,23.8921875 30.5953125,21.0796875 C30.5953125,21.0421875 30.5953125,21.0421875 30.5953125,21.0046875 C30.5953125,20.9671875 30.5953125,20.9671875 30.5953125,20.9296875 C30.5578125,18.121875 32.653125,15.759375 35.465625,15.759375 L62.1,15.759375 C65.2453125,15.759375 68.0578125,13.4015625 68.2453125,10.2515625 C68.3953125,6.88125 65.7375,4.10625 62.4,4.10625 L42.8953125,4.10625 C23.00625,12.3046875 8.990625,31.8609375 8.990625,54.7078125 C8.990625,77.5546875 23.00625,97.10625 42.9,105.295313 L67.6640625,105.295313 C70.809375,105.295313 73.621875,102.9375 73.809375,99.7875 C73.959375,96.4171875 71.3015625,93.646875 67.9640625,93.646875 L39.7921875,93.6421875 C36.46875,93.6421875 33.7921875,90.8625 33.9703125,87.496875 C34.134375,84.346875 36.965625,81.9796875 40.1203125,81.9796875 L51.0421875,81.9796875 C54.1828125,81.890625 56.71875,79.3171875 56.71875,76.153125 C56.71875,72.9328125 54.0984375,70.3078125 50.8734375,70.3078125 L34.3171875,70.3078125 C31.621875,70.3078125 29.409375,68.1 29.446875,65.4 L29.446875,64.9875 C29.259375,62.3296875 31.396875,60.0796875 34.0546875,60.0796875 L70.621875,60.0796875 C73.8046875,60.0796875 76.6171875,57.721875 76.8046875,54.571875 C76.9546875,51.20625 74.2921875,48.43125 70.959375,48.43125 Z" id="Path" fill="#FDBC4B"></path>
                            <path d="M63.5390625,93.7546875 C42.0046875,93.7546875 24.4875,76.2328125 24.4875,54.703125 C24.4875,33.1734375 42.0046875,15.65625 63.5390625,15.65625 C85.0734375,15.65625 102.590625,33.178125 102.590625,54.7078125 C102.590625,76.2375 85.0734375,93.7546875 63.5390625,93.7546875 Z" id="Path" fill="#FFDB70"></path>
                            <path d="M102.590625,54.7078125 C102.590625,33.9328125 86.26875,16.940625 65.7796875,15.76875 L62.1421875,15.76875 C59.7421875,15.76875 57.6,17.56875 57.4546875,19.96875 C57.3421875,22.5375 59.3671875,24.65625 61.9125,24.65625 L83.4,24.6609375 C85.9359375,24.6609375 87.975,26.7796875 87.8390625,29.3484375 C87.7125,31.753125 85.55625,33.5578125 83.146875,33.5578125 L74.8171875,33.5578125 C72.421875,33.628125 70.4859375,35.5875 70.4859375,38.0015625 C70.4859375,40.4578125 72.4875,42.459375 74.94375,42.459375 L87.571875,42.459375 C89.6296875,42.459375 91.3125,44.146875 91.284375,46.2 L91.284375,46.509375 C91.425,48.5390625 89.7984375,50.25 87.76875,50.25 L59.8828125,50.25 C57.4546875,50.25 55.3125,52.05 55.1671875,54.45 C55.0546875,57.01875 57.0796875,59.1375 59.625,59.1375 L86.0625,59.1375 C88.1203125,59.1375 89.803125,60.825 89.803125,62.878125 L89.775,63.1359375 L89.775,63.1921875 C89.803125,65.3625 88.03125,67.134375 85.8609375,67.134375 L67.5328125,67.134375 C65.1046875,67.134375 62.9625,68.934375 62.8171875,71.3625 C62.7046875,73.903125 64.7296875,76.05 67.275,76.05 L86.6859375,76.05 C88.828125,76.05 90.4265625,77.85 90.3984375,79.9921875 C90.3984375,80.0203125 90.3984375,80.0203125 90.3984375,80.0484375 C90.3984375,80.0765625 90.3984375,80.0765625 90.3984375,80.1046875 C90.4265625,82.246875 88.828125,84.046875 86.6859375,84.046875 L66.375,84.046875 C63.975,84.046875 61.8328125,85.846875 61.6875,88.246875 C61.575,90.8203125 63.6,92.934375 66.1453125,92.934375 L71.503125,92.934375 C89.2359375,89.240625 102.590625,73.5046875 102.590625,54.7078125 Z" id="Path" fill="#FFFFFF" opacity="0.2"></path>
                            <path d="M90.8015625,46.059375 L71.8078125,46.059375 L65.934375,27.99375 C65.1796875,25.6734375 61.89375,25.6734375 61.1390625,27.99375 L55.2703125,46.059375 L36.2765625,46.059375 C33.834375,46.059375 32.8171875,49.1859375 34.7953125,50.6203125 L50.1609375,61.7859375 L44.2921875,79.8515625 C43.5375,82.171875 46.1953125,84.103125 48.1734375,82.66875 L63.5390625,71.503125 L78.9046875,82.66875 C80.8828125,84.103125 83.540625,82.171875 82.7859375,79.8515625 L76.9171875,61.7859375 L92.2828125,50.6203125 C94.25625,49.1859375 93.24375,46.059375 90.8015625,46.059375 Z" id="Path" fill="#EC9922"></path>
                        </g>
                    </g>
                </g>
            </g>
        </g>
    </g>
</svg>