<?xml version="1.0" encoding="UTF-8"?>
<svg width="157px" height="150px" viewBox="0 0 157 150" version="1.1" xmlns="http://www.w3.org/2000/svg" xmlns:xlink="http://www.w3.org/1999/xlink">
    <!-- Generator: Sketch 60 (88103) - https://sketch.com -->
    <title>hammer</title>
    <desc>Created with Sketch.</desc>
    <g id="Page-1" stroke="none" stroke-width="1" fill="none" fill-rule="evenodd">
        <g id="Главная-v1" transform="translate(-1116.000000, -1026.000000)" fill-rule="nonzero">
            <g id="Group-29" transform="translate(0.000000, 798.000000)">
                <g id="Group-19" transform="translate(1009.000000, 228.000000)">
                    <g id="hammer-2" transform="translate(107.000000, 0.000000)">
                        <g id="hammer">
                            <polygon id="Path" fill="#92949B" points="110.645816 90.3146939 110.331122 108.301224 97.9539796 103.006837 97.9539796 103.003469 94.2615306 99.3113265 94.2581633 99.3113265 79.3187755 84.3716327 51.4594898 56.5123469 51.3502041 56.4 54.8883673 52.8584694 64.0389796 43.7081633 67.5676531 47.239898 67.5707143 47.239898 78.0376531 57.709898 79.6622449 59.3344898 92.0109184 71.6831633 100.512857 80.185102 110.642449 90.3116327"></polygon>
                            <path d="M153.061224,145.827857 C148.373571,150.297245 140.911837,150.049898 136.330102,145.471531 L131.709796,140.848163 L125.577245,134.71898 L97.3359184,106.474286 C96.5491837,105.687551 96.5491837,104.409796 97.3359184,103.623061 L97.952449,103.006531 L102.572755,98.3862245 L110.644592,90.3143878 L111.261122,89.6978571 C112.050918,88.9080612 113.325612,88.9080612 114.112347,89.6978571 L153.266939,128.849388 C157.957653,133.540408 157.890306,141.220408 153.061224,145.827857 Z" id="Path" fill="#E8B33F"></path>
                            <polygon id="Path" fill="#66686D" points="97.9539796 103.006837 97.9539796 103.003469 94.2615306 99.3113265 94.2581633 99.3113265 79.3187755 84.3716327 51.4594898 56.5123469 51.3502041 56.4 54.8883673 52.8584694 58.4170408 56.3905102 58.4204082 56.3905102 68.8873469 66.8605102 70.5119388 68.485102 82.8603061 80.8334694 91.3622449 89.3354082 101.492143 99.4622449 101.495204 99.4653061"></polygon>
                            <path d="M55.8838776,13.9542857 C65.6485714,4.18959184 81.1095918,1.39714286 93.7643878,8.83040816 C82.1629592,13.9793878 69.0768367,25.8939796 64.2590816,34.2263265 L50.7560204,34.6316327 L49.9423469,19.8961224 L49.9469388,19.8915306 C53.2365306,16.6013265 55.6273469,14.2108163 55.8838776,13.9542857 Z" id="Path" fill="#484B54"></path>
                            <path d="M153.061224,145.827857 C148.373571,150.297245 140.911837,150.049898 136.330102,145.471531 L131.709796,140.848163 L125.577245,134.71898 L97.3359184,106.474286 C96.5491837,105.687551 96.5491837,104.409796 97.3359184,103.623061 L97.952449,103.006531 L97.952449,103.003469 L102.572755,98.3865306 C102.572755,98.3865306 121.827551,126.457653 153.061224,145.827857 Z" id="Path" fill="#D39F37"></path>
                            <path d="M23.2705102,37.5042857 L41.1229592,43.9414286 L46.7568367,60.9906122 L46.7568367,60.9906122 C44.3081633,59.2576531 41.0932653,58.939898 38.4055102,60.2721429 C37.4057143,60.7677551 36.4438776,61.4507143 35.5803061,62.3142857 C34.7338776,63.1607143 34.0613265,64.1014286 33.5684694,65.080102 C32.2111224,67.7755102 32.5297959,71.0155102 34.2590816,73.4889796 L34.2590816,73.4889796 L16.8829592,69.7885714 L10.7727551,50.0026531 L10.7727551,50.0026531 C13.3946939,51.8145918 16.8385714,52.0527551 19.6157143,50.4896939 C20.4446939,50.0231633 21.2396939,49.4253061 21.9652041,48.6994898 C22.8306122,47.8340816 23.5147959,46.8697959 24.0107143,45.8666327 C25.3435714,43.1721429 25.0169388,39.9505102 23.2705102,37.5042857 L23.2705102,37.5042857 Z" id="Path" fill="#484B54"></path>
                            <path d="M34.2590816,73.4886735 L23.4866327,84.2611224 L0,60.7747959 L10.772449,50.0023469 C10.772449,50.0023469 33.8277551,73.0435714 34.2590816,73.4886735 Z" id="Path" fill="#92949B"></path>
                            <g id="Group" transform="translate(18.673469, 43.469388)" fill="#66686D">
                                <path d="M11.2677551,25.7014286 L15.3205102,29.7541837 C15.3205102,29.7541837 15.5063265,29.9265306 15.5853061,30.0189796 L4.81285714,40.7914286 L0.214591837,36.1931633 L10.9870408,25.4207143 C11.0831633,25.5076531 11.2677551,25.7014286 11.2677551,25.7014286 Z" id="Path"></path>
                                <polygon id="Path" points="48.8941837 3.7705102 36.2054082 16.4592857 36.2054082 16.4623469 32.7860204 13.0429592 32.6767347 12.9306122 45.3655102 0.23877551"></polygon>
                            </g>
                            <path d="M63.9578571,107.113776 L122.458776,48.6128571 C125.798571,45.2730612 129.939796,42.8886735 134.445306,41.4710204 C137.60051,40.4782653 140.569898,38.732449 143.070918,36.2314286 C151.537041,27.7653061 151.368367,13.9395918 142.572857,5.6822449 L138.559286,18.5485714 C137.013061,23.5053061 131.741327,26.269898 126.784592,24.7233673 L126.784592,24.7233673 C121.827857,23.1771429 119.063265,17.9054082 120.60949,12.9486735 L124.577143,0.229285714 C120.75949,0.851632653 117.083571,2.50469388 114.022653,5.19581633 C107.594082,10.8483673 105.440204,19.3640816 107.557959,26.9372449 C109.146735,32.6188776 107.665408,38.7140816 103.493878,42.8859184 L44.9926531,101.386837 C41.6528571,104.726633 37.5116327,107.11102 33.0061224,108.528673 C29.8509184,109.521429 26.8815306,111.266939 24.3805102,113.768265 C15.9143878,122.234388 16.0830612,136.060102 24.8785714,144.317449 L28.8921429,131.451122 C30.4383673,126.494388 35.710102,123.729796 40.6668367,125.276327 L40.6668367,125.276327 C45.6235714,126.822551 48.3881633,132.094286 46.8419388,137.05102 L42.8739796,149.770408 C46.6916327,149.148061 50.367551,147.495 53.4284694,144.803878 C59.8570408,139.151633 62.0109184,130.635918 59.8931633,123.062755 C58.305,117.38051 59.7860204,111.285306 63.9578571,107.113776 Z" id="Path" fill="#92949B"></path>
                            <polygon id="Path" fill="#66686D" points="92.0109184 71.6831633 79.3187755 84.3716327 66.9737755 72.0266327 79.6622449 59.3344898"></polygon>
                            <polygon id="Rectangle" fill="#EA3D3D" transform="translate(83.723545, 74.999180) rotate(135.000000) translate(-83.723545, -74.999180) " points="47.0386418 66.2694169 120.408448 66.2694169 120.408448 83.7289433 47.0386418 83.7289433"></polygon>
                            <path d="M45.4157143,15.3596939 L49.9429592,19.8958163 L59.7278571,29.6944898 L64.2593878,34.2260204 L68.8907143,38.8573469 L64.0389796,43.7090816 L64.0368367,43.7069388 L51.3459184,56.3978571 L51.3480612,56.4 L46.757449,60.9906122 C46.3236735,60.5706122 23.6932653,37.9353061 23.2711224,37.5042857 C23.2705102,37.5042857 37.165102,23.61 45.4157143,15.3596939 Z" id="Path" fill="#92949B"></path>
                        </g>
                    </g>
                </g>
            </g>
        </g>
    </g>
</svg>