<?xml version="1.0" encoding="UTF-8"?>
<svg width="194px" height="148px" viewBox="0 0 194 148" version="1.1" xmlns="http://www.w3.org/2000/svg" xmlns:xlink="http://www.w3.org/1999/xlink">
    <!-- Generator: Sketch 60 (88103) - https://sketch.com -->
    <title>Asset 2</title>
    <desc>Created with Sketch.</desc>
    <g id="Page-1" stroke="none" stroke-width="1" fill="none" fill-rule="evenodd">
        <g id="Выбор-узла" transform="translate(-810.000000, -445.000000)" stroke="#E96300" stroke-width="2.27">
            <g id="Group-15" transform="translate(222.000000, 332.000000)">
                <g id="Group-19" transform="translate(590.000000, 115.000000)">
                    <g id="Asset-3">
                        <g id="Asset-2">
                            <path d="M124.892124,39.0512263 L129.517759,21.0099394 C132.335531,20.8481306 134.722662,18.8772569 135.414766,16.1412263 L137.84931,6.51199373 C138.275727,4.78015944 137.224791,3.02873491 135.495917,2.58997484 L125.649538,0.101521479 C124.820841,-0.111664313 123.941358,0.0138435442 123.205385,0.450317797 C122.469412,0.88679205 121.937521,1.59831059 121.727217,2.42768441 L119.292672,12.056917 C118.656294,14.6237545 119.640719,17.3200166 121.781318,18.8731153 L117.101583,37.1037411 M96.6514101,54.9015923 L97.1653695,49.4919111 C97.1653695,48.5722653 98.0580357,48.5452169 98.950702,48.6804589 L139.661693,54.6311083 M99.0859544,47.9231035 L100.276176,41.5396797 C100.335009,41.095841 100.574599,40.6960221 100.938258,40.4348219 C101.301918,40.1736217 101.757337,40.0742473 102.196761,40.160211 L137.795209,49.4919111 M104.3608,40.5659371 L105.794477,34.8046266 C105.870695,34.4473527 106.091009,34.1373777 106.403378,33.9479224 C106.715748,33.7584671 107.09247,33.7063332 107.444557,33.8038355 L135.279514,42.6486643 L142.79955,63.0161142 M94.5955727,63.0161142 L94.5955727,57.3359489 C94.5803288,56.8866809 94.7521259,56.4512153 95.0700137,56.1333521 C95.3879014,55.8154889 95.8234006,55.643705 96.2727032,55.6589477 L141.447026,59.5268698 M94.6767241,64.3955829 L167.199095,64.3955829 C170.39001,64.410389 172.973093,66.9932725 172.9879,70.1839418 L172.9879,77.4058662 L190.300216,82.1122889 L190.300216,96.3667989 L172.9879,101.073222 L172.9879,106.834532 C172.973093,110.025201 170.39001,112.608085 167.199095,112.622891 L148.26375,112.622891 L146.857124,115.949845 C144.611933,121.116091 141.447026,126.39053 136.686139,126.39053 L94.4603202,126.39053 L24.8594027,144.323623 L7.41183498,144.323623 L7.41183498,100.369963 L4.26325641e-14,100.369963 L4.26325641e-14,78.920577 L7.41183498,78.920577 L7.41183498,34.966917 L24.8594027,34.966917 L94.5955727,64.4226313 L94.6767241,64.3955829 Z M173.123153,77.4058662 L173.123153,101.046173 M7.41183498,78.055028 L7.41183498,100.369963 M24.8594027,34.966917 L24.8594027,144.323623 M25.752069,54.1171885 L94.3250677,75.2690421 M25.752069,92.3636348 L93.7299569,93.8512972 M25.752069,74.592832 L94.3250677,83.8974837 M25.752069,109.485276 L94.3250677,103.1289 M25.752069,130.177307 L94.3250677,112.704036 M50.0163608,44.5691012 L50.0163608,138.156586 M72.1436638,55.0638828 L72.1436638,133.34197 M94.4332697,64.4496797 L94.4332697,126.39053 M148.2908,112.622891 L94.4603202,112.622891 M95.4611884,75.2690421 L151.996718,75.2690421 C154.032922,75.2690421 155.687773,76.9116325 155.702635,78.9476254 L155.702635,97.638074 C155.687773,99.6740669 154.032922,101.316657 151.996718,101.316657 L95.4611884,101.316657 M98.9236515,81.7606596 L102.007408,81.7606596 M146.370216,81.7606596 L149.562174,81.7606596 M99.004803,94.7168462 L102.088559,94.7168462 M146.451367,94.7168462 L149.562174,94.7168462" id="Shape"></path>
                        </g>
                    </g>
                </g>
            </g>
        </g>
    </g>
</svg>