<?xml version="1.0" encoding="UTF-8"?>
<svg width="158px" height="142px" viewBox="0 0 158 142" version="1.1" xmlns="http://www.w3.org/2000/svg" xmlns:xlink="http://www.w3.org/1999/xlink">
    <!-- Generator: Sketch 60 (88103) - https://sketch.com -->
    <title>Asset 1</title>
    <desc>Created with Sketch.</desc>
    <g id="Page-1" stroke="none" stroke-width="1" fill="none" fill-rule="evenodd">
        <g id="Выбор-узла" transform="translate(-220.000000, -451.000000)" stroke="#E96300" stroke-width="2.27">
            <g id="Group-15" transform="translate(222.000000, 332.000000)">
                <g id="Group-19" transform="translate(0.000000, 121.000000)">
                    <g id="Asset-2">
                        <g id="Asset-1">
                            <path d="M76.5879416,54.1381034 C77.8088471,54.1381131 78.9093031,54.8722123 79.375393,55.9975742 C79.8414829,57.1229362 79.5812462,58.4175245 78.7162141,59.2767622 C77.851182,60.1359999 76.5520275,60.3903574 75.4254599,59.9210489 C74.2988923,59.4517405 73.5671859,58.3513617 73.572026,57.1337931 C73.572026,55.4727015 74.9223107,54.1261207 76.5879416,54.1261207 L76.5879416,54.1381034 Z M76.5879416,47.2000862 C82.0958046,47.2000862 86.5608098,51.6529231 86.5608098,57.1457759 C86.5608098,62.6386286 82.0958046,67.0914655 76.5879416,67.0914655 C71.0800785,67.0914655 66.6150733,62.6386286 66.6150733,57.1457759 C66.6150733,51.6529231 71.0800785,47.2000862 76.5879416,47.2000862 Z M76.8642981,99.1693103 C78.855092,99.1693103 80.4689493,100.778769 80.4689493,102.764138 C80.4689493,104.749506 78.855092,106.358966 76.8642981,106.358966 C74.8735043,106.358966 73.259647,104.749506 73.259647,102.764138 C73.259647,100.778769 74.8735043,99.1693103 76.8642981,99.1693103 L76.8642981,99.1693103 Z M76.8642981,83.5078448 C87.5419286,83.5343009 96.1788455,92.1834114 96.1611979,102.831961 C96.1434963,113.48051 87.477915,122.101058 76.8002552,122.092268 C66.1225955,122.083465 57.4712749,113.44865 57.4712749,102.800086 C57.4712749,92.1452755 66.1323091,83.5078448 76.8162361,83.5078448 L76.8642981,83.5078448 Z M102.096856,83.0405172 C103.183627,83.0014359 104.185381,83.6242019 104.628707,84.6145058 C105.072032,85.6048097 104.868157,86.7643566 104.113431,87.5451628 C103.358705,88.325969 102.204252,88.5716888 101.195647,88.1661987 C100.187042,87.7607087 99.5262448,86.7852027 99.5255385,85.7006897 C99.5255385,84.231517 100.719793,83.0405172 102.19298,83.0405172 L102.096856,83.0405172 Z M41.4065462,90.1223276 C43.4437919,90.1223276 45.0953059,91.7693408 45.0953059,93.8010345 C45.0953059,95.8327282 43.4437919,97.4797414 41.4065462,97.4797414 C39.3693005,97.4797414 37.7177865,95.8327282 37.7177865,93.8010345 C37.7177865,91.7693408 39.3693005,90.1223276 41.4065462,90.1223276 Z M63.0344532,116.352586 L40.2049958,103.459138 M32.7433679,88.9000862 L38.4987943,67.6786207 M55.5848408,64.3953448 L64.5003447,75.7430172 M70.8925927,72.1481897 L82.0910423,78.0077586 M111.240655,101.302241 C113.171725,101.302241 114.737166,102.863417 114.737166,104.789224 C114.737166,106.715032 113.171725,108.276207 111.240655,108.276207 C109.309585,108.276207 107.744143,106.715032 107.744143,104.789224 C107.744143,102.863417 109.309585,101.302241 111.240655,101.302241 L111.240655,101.302241 Z M81.4061586,48.4343103 L104.031352,56.1751724 M117.644918,68.4934483 L119.639492,100.846897 M110.904221,114.027931 L87.4259261,118.964828 M107.503833,60.8963793 C110.237857,60.8963793 112.454221,63.1067032 112.454221,65.8332759 C112.454221,68.5598485 110.237857,70.7701724 107.503833,70.7701724 C104.769809,70.7701724 102.553445,68.5598485 102.553445,65.8332759 C102.553445,63.1067032 104.769809,60.8963793 107.503833,60.8963793 Z M47.2340656,63.292931 C49.2248595,63.292931 50.8387168,64.9023902 50.8387168,66.8877586 C50.8387168,68.8731271 49.2248595,70.4825862 47.2340656,70.4825862 C45.2432717,70.4825862 43.6294144,68.8731271 43.6294144,66.8877586 C43.6294144,64.9023902 45.2432717,63.292931 47.2340656,63.292931 L47.2340656,63.292931 Z M12.0406547,55.1686207 L12.2809648,58.3200862 L0.998406674,69.3562069 C0.337683936,70.0157108 -0.0228111433,70.9166581 0.00111985247,71.8486207 L0.00111985247,79.0382759 C0.00111985247,80.8596552 1.20267024,81.8781897 3.30538342,82.3335345 L8.00344543,83.3161207 M18.0363912,92.4469828 L18.0363912,75.8868103 L25.6181741,68.4814655 M17.1111974,64.7428448 L10.1181741,71.5490517 C9.45745138,72.2085556 9.0969563,73.109503 9.12088729,74.0414655 L9.12088729,94.9993103 C9.12046103,96.7981364 10.5617578,98.2674469 12.3650733,98.3065517 L23.8879416,99.6006897 M85.9239881,6.44672414 L85.9239881,1.19827586 C85.9239881,0.536486377 85.3860356,0 84.7224377,0 L69.1022826,0 C68.4386847,0 67.9007323,0.536486377 67.9007323,1.19827586 L67.9007323,6.44672414 M76.9123602,20.8260345 C80.6550526,20.8260345 83.6891043,23.8518177 83.6891043,27.5843103 C83.6891043,31.316803 80.6550526,34.3425862 76.9123602,34.3425862 C73.1696677,34.3425862 70.135616,31.316803 70.135616,27.5843103 C70.135616,23.8518177 73.1696677,20.8260345 76.9123602,20.8260345 L76.9123602,20.8260345 Z M98.4441431,7.35741379 L102.132903,5.84758621 L119.7236,19.4480172 M54.1790268,25.6191379 L55.9813524,7.41732759 L97.8914299,7.41732759 L99.705771,25.6191379 M34.1011199,19.4000862 L51.6918175,5.84758621 L55.4166237,7.40534483 M121.429802,28.7586207 L144.259259,52.0531034 C144.383997,52.1768044 144.454134,52.3449978 144.454134,52.520431 C144.454134,52.6958642 144.383997,52.8640577 144.259259,52.9877586 L128.074376,66.767931 L128.074376,97.995 L128.771275,98.390431 C129.564298,98.8457759 130.429414,99.1333621 130.429414,100.044052 L130.429414,113.872155 C130.429414,114.782845 129.564298,115.070431 128.771275,115.525776 L128.074376,115.921207 L128.074376,117.287241 C127.926434,119.343728 126.236129,120.951625 124.169337,121.001897 L103.911197,123.398448 L99.1049958,128.898534 L54.6476315,128.898534 L43.977864,116.088966 L27.4325152,112.182586 C25.6782516,111.715259 25.0294144,111.140086 25.0294144,109.977759 L25.3177865,66.7319828 L9.51739892,52.9877586 C9.3863607,52.8675028 9.31179823,52.6980233 9.31179823,52.520431 C9.31179823,52.3428388 9.3863607,52.1733593 9.51739892,52.0531034 L34.2453059,29.3817241 M9.01274776,50.1118966 L7.85925939,48.9855172 C6.36353613,47.0460531 6.43370122,44.3270682 8.02747644,42.4668966 L11.8724377,38.620431 L9.7456935,34.8698276 C9.30797738,34.3231771 9.30797738,33.5471677 9.7456935,33.0005172 L19.6344532,23.1387069 C20.1825975,22.7021837 20.9607275,22.7021837 21.5088718,23.1387069 L25.2456935,25.2596552 L30.1600346,20.3587069 C32.0464687,18.765 33.8968563,18.7410345 35.6991819,20.7301724 L48.2914299,33.3000862 C50.5436416,35.1864284 53.3360634,36.3146126 56.2697245,36.5234483 L66.963523,36.5234483 C69.5056546,39.3251099 73.1175928,40.9235308 76.9063524,40.9235308 C80.695112,40.9235308 84.3070502,39.3251099 86.8491819,36.5234483 L97.4949183,36.5234483 C100.449321,36.3262287 103.264355,35.197409 105.53329,33.3000862 L118.125538,20.7421552 C119.915849,18.7410345 121.73019,18.7769828 123.65267,20.3706897 L128.554996,25.2716379 L132.291818,23.1506897 C132.838365,22.7096446 133.619688,22.7096446 134.166236,23.1506897 L144.054996,33.0125 C144.492712,33.5591504 144.492712,34.3351599 144.054996,34.8818103 L141.928252,38.6084483 L145.653058,42.3590517 C147.384318,44.1859428 147.507163,47.0036865 145.94143,48.9735345 L144.811973,50.0999138 M95.151895,130.09681 L94.3468563,134.818017 C94.0464687,136.603448 92.8929803,138.113276 91.1146857,138.113276 L62.7100346,138.113276 C60.93174,138.113276 59.7782516,136.603448 59.477864,134.818017 L58.6728253,130.09681 M107.503833,55.3243966 C113.323587,55.3243966 118.04143,60.0293821 118.04143,65.8332759 C118.04143,71.6371696 113.323587,76.3421552 107.503833,76.3421552 C101.684079,76.3421552 96.9662361,71.6371696 96.9662361,65.8332759 C96.9662361,60.0293821 101.684079,55.3243966 107.503833,55.3243966 L107.503833,55.3243966 Z M47.2340656,58.116371 C50.777962,58.1115312 53.9756073,60.2367742 55.3351676,63.5005943 C56.6947278,66.7644144 55.9482878,70.5236428 53.4440927,73.0244437 C50.9398977,75.5252447 47.1714247,76.27481 43.8968223,74.9234364 C40.62222,73.5720627 38.4867705,70.3860521 38.4867705,66.8518103 C38.4835892,64.5361326 39.4037674,62.3142097 41.0445478,60.6756532 C42.6853281,59.0370968 44.9120576,58.116371 47.2340656,58.116371 L47.2340656,58.116371 Z M68.4173989,71.189569 C70.5276404,71.189569 72.2383292,72.8955956 72.2383292,75.0000862 C72.2383292,77.1045768 70.5276404,78.8106034 68.4173989,78.8106034 C66.3071574,78.8106034 64.5964687,77.1045768 64.5964687,75.0000862 C64.5964687,72.8955956 66.3071574,71.189569 68.4173989,71.189569 L68.4173989,71.189569 Z M84.4941431,71.189569 C86.6043846,71.189569 88.3150733,72.8955956 88.3150733,75.0000862 C88.3150733,77.1045768 86.6043846,78.8106034 84.4941431,78.8106034 C82.3839016,78.8106034 80.6732129,77.1045768 80.6732129,75.0000862 C80.6732129,73.9894742 81.075774,73.0202542 81.7923374,72.3056436 C82.5089008,71.591033 83.4807694,71.189569 84.4941431,71.189569 Z M83.2084842,65.3899138 L87.0774764,72.1961207 M41.4185617,83.8673276 C46.9197888,83.8673276 51.3794144,88.3147997 51.3794144,93.8010345 C51.3794144,99.2872693 46.9197888,103.734741 41.4185617,103.734741 C35.9173347,103.734741 31.457709,99.2872693 31.457709,93.8010345 C31.457709,88.3147997 35.9173347,83.8673276 41.4185617,83.8673276 L41.4185617,83.8673276 Z M111.240655,95.5625 C116.350359,95.5625 120.492593,99.6934451 120.492593,104.789224 C120.492593,109.885003 116.350359,114.015948 111.240655,114.015948 C106.13095,114.015948 101.988717,109.885003 101.988717,104.789224 C101.988717,99.6934451 106.13095,95.5625 111.240655,95.5625 L111.240655,95.5625 Z M142.324763,55.1686207 L142.084453,58.3200862 L153.415073,69.3562069 C154.075796,70.0157108 154.436291,70.9166581 154.41236,71.8486207 L154.41236,79.0382759 C154.41236,80.8596552 153.21081,81.8781897 151.108097,82.3335345 L146.386004,83.3760345 M136.353058,92.5068966 L136.353058,75.8868103 L128.771275,68.4814655 M137.278252,64.7428448 L144.235228,71.537069 C144.895951,72.1965729 145.256446,73.0975202 145.232515,74.0294828 L145.232515,94.9993103 C145.232941,96.7981364 143.791645,98.2674469 141.988329,98.3065517 L130.465461,99.6006897" id="Shape"></path>
                        </g>
                    </g>
                </g>
            </g>
        </g>
    </g>
</svg>