<?xml version="1.0" encoding="UTF-8"?>
<svg width="207px" height="95px" viewBox="0 0 207 95" version="1.1" xmlns="http://www.w3.org/2000/svg" xmlns:xlink="http://www.w3.org/1999/xlink">
    <!-- Generator: Sketch 60 (88103) - https://sketch.com -->
    <title>Group 23</title>
    <desc>Created with Sketch.</desc>
    <g id="Page-1" stroke="none" stroke-width="1" fill="none" fill-rule="evenodd">
        <g id="Выбор-узла" transform="translate(-515.000000, -474.000000)" stroke="#E96300">
            <g id="Group-15" transform="translate(222.000000, 332.000000)">
                <g id="Group-23" transform="translate(295.000000, 144.000000)">
                    <g id="Group-22">
                        <path d="M102.090128,25.2506823 C110.645458,25.2506823 117.985481,30.4571097 121.118156,37.8761558 L156.002892,37.8760234 L156.002892,55.0923977 L120.591353,55.0923652 C117.212744,61.8950015 110.197063,66.5699805 102.090128,66.5699805 C93.9831922,66.5699805 86.9675114,61.8950015 83.588902,55.0923652 L47.0302836,55.0923977 L47.0302836,37.8760234 L83.0620991,37.8761558 C86.1947744,30.4571097 93.5347972,25.2506823 102.090128,25.2506823 Z" id="Combined-Shape" stroke-width="2.27"></path>
                        <g id="Group-21">
                            <rect id="Rectangle" stroke-width="2.27" x="0" y="0" width="47.0302836" height="91.8206628" rx="8"></rect>
                            <g id="Group-20" transform="translate(0.372801, 0.263984)" stroke-linecap="round" stroke-width="2.7">
                                <line x1="0.143385011" y1="5.76174659" x2="23.1423408" y2="18.6740273" id="Line-2"></line>
                                <line x1="8.02956061" y1="-2.04139092e-14" x2="22.7368208" y2="8.18254503" id="Line-2"></line>
                                <line x1="5.71986902e-13" y1="15.9481014" x2="22.9989557" y2="28.8603821" id="Line-2"></line>
                                <line x1="5.71986902e-13" y1="26.2779259" x2="22.9989557" y2="39.1902066" id="Line-2"></line>
                                <line x1="5.71986902e-13" y1="36.6077505" x2="22.9989557" y2="49.5200312" id="Line-2"></line>
                                <line x1="5.71986902e-13" y1="46.937575" x2="22.9989557" y2="59.8498558" id="Line-2"></line>
                                <line x1="5.71986902e-13" y1="57.2673996" x2="22.9989557" y2="70.1796803" id="Line-2"></line>
                                <line x1="5.71986902e-13" y1="67.5972242" x2="22.9989557" y2="80.5095049" id="Line-2"></line>
                                <line x1="5.71986902e-13" y1="77.9270487" x2="22.9989557" y2="90.8393294" id="Line-2"></line>
                            </g>
                            <g id="Group-20" transform="translate(34.829545, 46.223088) scale(-1, 1) translate(-34.829545, -46.223088) translate(22.829545, 0.723088)" stroke-linecap="round" stroke-width="2.7">
                                <line x1="0.143385011" y1="5.76174659" x2="23.1423408" y2="18.6740273" id="Line-2"></line>
                                <line x1="8.02956061" y1="-2.04139092e-14" x2="22.7368208" y2="8.18254503" id="Line-2"></line>
                                <line x1="5.71986902e-13" y1="15.9481014" x2="22.9989557" y2="28.8603821" id="Line-2"></line>
                                <line x1="5.71986902e-13" y1="26.2779259" x2="22.9989557" y2="39.1902066" id="Line-2"></line>
                                <line x1="5.71986902e-13" y1="36.6077505" x2="22.9989557" y2="49.5200312" id="Line-2"></line>
                                <line x1="5.71986902e-13" y1="46.937575" x2="22.9989557" y2="59.8498558" id="Line-2"></line>
                                <line x1="5.71986902e-13" y1="57.2673996" x2="22.9989557" y2="70.1796803" id="Line-2"></line>
                                <line x1="5.71986902e-13" y1="67.5972242" x2="22.9989557" y2="80.5095049" id="Line-2"></line>
                                <line x1="5.71986902e-13" y1="77.9270487" x2="22.9989557" y2="90.8393294" id="Line-2"></line>
                            </g>
                            <line x1="24.0886818" y1="0.573879142" x2="24.0886818" y2="91.2467836" id="Line-2" stroke-width="2.7" stroke-linecap="square"></line>
                        </g>
                        <g id="Group-21" transform="translate(156.002892, 0.000000)">
                            <rect id="Rectangle" stroke-width="2.27" x="0" y="0" width="47.0302836" height="91.8206628" rx="8"></rect>
                            <g id="Group-20" transform="translate(0.372801, 0.263984)" stroke-linecap="round" stroke-width="2.7">
                                <line x1="0.143385011" y1="5.76174659" x2="23.1423408" y2="18.6740273" id="Line-2"></line>
                                <line x1="8.02956061" y1="-2.04139092e-14" x2="22.7368208" y2="8.18254503" id="Line-2"></line>
                                <line x1="5.71986902e-13" y1="15.9481014" x2="22.9989557" y2="28.8603821" id="Line-2"></line>
                                <line x1="5.71986902e-13" y1="26.2779259" x2="22.9989557" y2="39.1902066" id="Line-2"></line>
                                <line x1="5.71986902e-13" y1="36.6077505" x2="22.9989557" y2="49.5200312" id="Line-2"></line>
                                <line x1="5.71986902e-13" y1="46.937575" x2="22.9989557" y2="59.8498558" id="Line-2"></line>
                                <line x1="5.71986902e-13" y1="57.2673996" x2="22.9989557" y2="70.1796803" id="Line-2"></line>
                                <line x1="5.71986902e-13" y1="67.5972242" x2="22.9989557" y2="80.5095049" id="Line-2"></line>
                                <line x1="5.71986902e-13" y1="77.9270487" x2="22.9989557" y2="90.8393294" id="Line-2"></line>
                            </g>
                            <g id="Group-20" transform="translate(34.829545, 46.223088) scale(-1, 1) translate(-34.829545, -46.223088) translate(22.829545, 0.723088)" stroke-linecap="round" stroke-width="2.7">
                                <line x1="0.143385011" y1="5.76174659" x2="23.1423408" y2="18.6740273" id="Line-2"></line>
                                <line x1="8.02956061" y1="-2.04139092e-14" x2="22.7368208" y2="8.18254503" id="Line-2"></line>
                                <line x1="5.71986902e-13" y1="15.9481014" x2="22.9989557" y2="28.8603821" id="Line-2"></line>
                                <line x1="5.71986902e-13" y1="26.2779259" x2="22.9989557" y2="39.1902066" id="Line-2"></line>
                                <line x1="5.71986902e-13" y1="36.6077505" x2="22.9989557" y2="49.5200312" id="Line-2"></line>
                                <line x1="5.71986902e-13" y1="46.937575" x2="22.9989557" y2="59.8498558" id="Line-2"></line>
                                <line x1="5.71986902e-13" y1="57.2673996" x2="22.9989557" y2="70.1796803" id="Line-2"></line>
                                <line x1="5.71986902e-13" y1="67.5972242" x2="22.9989557" y2="80.5095049" id="Line-2"></line>
                                <line x1="5.71986902e-13" y1="77.9270487" x2="22.9989557" y2="90.8393294" id="Line-2"></line>
                            </g>
                            <line x1="24.0886818" y1="0.573879142" x2="24.0886818" y2="91.2467836" id="Line-2" stroke-width="2.7" stroke-linecap="square"></line>
                        </g>
                    </g>
                </g>
            </g>
        </g>
    </g>
</svg>