<?xml version="1.0" encoding="UTF-8"?>
<svg width="158px" height="149px" viewBox="0 0 158 149" version="1.1" xmlns="http://www.w3.org/2000/svg" xmlns:xlink="http://www.w3.org/1999/xlink">
    <!-- Generator: Sketch 60 (88103) - https://sketch.com -->
    <title>Asset 3</title>
    <desc>Created with Sketch.</desc>
    <g id="Page-1" stroke="none" stroke-width="1" fill="none" fill-rule="evenodd">
        <g id="Выбор-узла" transform="translate(-1107.000000, -444.000000)" stroke="#E96300" stroke-width="2.27">
            <g id="Group-15" transform="translate(222.000000, 332.000000)">
                <g id="Group-19" transform="translate(885.000000, 113.000000)">
                    <g id="Asset-4" transform="translate(1.000000, 0.000000)">
                        <g id="Asset-3">
                            <path d="M141.66623,70.8449123 L149.669836,70.8449123 L149.669836,97.3031579 L141.66623,97.3031579 L141.66623,122.099649 L135.708852,122.800702 L135.708852,124.774035 L121.747869,137.367018 L107.786885,137.367018 L107.786885,145.156491 C107.786885,145.930853 107.160671,146.558596 106.388197,146.558596 L90.8472131,146.558596 L90.8472131,141.365614 L80.3570492,141.365614 L80.3570492,146.558596 L64.8160656,146.558596 C64.0435912,146.558596 63.417377,145.930853 63.417377,145.156491 L63.417377,137.367018 L50.4665574,137.367018 L35.702623,124.774035 L35.702623,60.4589474 L50.4665574,47.8659649 L63.417377,47.8659649 L63.417377,40.9592982 C63.4452542,40.2052891 64.0633776,39.6091225 64.8160656,39.6091225 L80.3570492,39.6091225 L80.3570492,44.1010526 L91.0544262,44.1010526 L91.0544262,39.6091225 L106.59541,39.6091225 C107.348098,39.6091225 107.966221,40.2052891 107.994098,40.9592982 L107.994098,47.8659649 L121.825574,47.8659649 L135.786557,60.4589474 L135.786557,64.0680702 L141.743934,64.7691228 L141.743934,70.8449123 L141.66623,70.8449123 Z M155.394098,85.8007018 L155.394098,92.4736842 M155.394098,75.8042105 L155.394098,82.3473684 M34.4334426,110.05193 L26.0154098,110.05193 L26.0154098,126.903158 L20.3170492,125.578947 L20.3170492,120.697544 L6.53737705,120.697544 L6.53737705,125.578947 L0.813114754,126.903158 L0.813114754,58.3298246 L6.53737705,59.6540351 L6.53737705,64.5354386 L20.2911475,64.5354386 L20.2911475,59.6540351 L25.9895082,58.3298246 L25.9895082,75.1810526 L34.407541,75.1810526 M16.6131148,64.5354386 L16.6131148,109.350877 M10.2672131,64.5354386 L10.2672131,114.050526 M37.852459,17.5389474 L47.4878689,17.5389474 L31.4029508,42.7508772 L22.4409836,42.7508772 L27.6213115,26.4449123 L16.6131148,26.4449123 L26.0672131,0.843508772 L44.1983607,0.843508772 L37.852459,17.5389474 Z M85.7186885,44.1010526 L85.7186885,141.495439 M127.161311,102.132632 L110.998689,102.132632 M127.109508,108.805614 L119.339016,110.415439 L110.998689,110.415439 M127.109508,114.751579 L119.339016,118.82807 L110.998689,118.82807 M127.109508,122.489123 L119.339016,127.240702 L110.998689,127.240702 M127.109508,83.6975439 L110.998689,83.6975439 M127.13541,76.8947368 L119.364918,75.2849123 L110.998689,75.2849123 M127.109508,70.9487719 L119.339016,66.8722807 L110.998689,66.8722807 M127.109508,63.2112281 L119.339016,58.4596491 L110.998689,58.4596491 M42.6960656,102.132632 L58.8068852,102.132632 M42.6960656,108.805614 L50.4665574,110.415439 L58.8068852,110.415439 M42.6960656,114.751579 L50.4665574,118.82807 L58.8068852,118.82807 M42.6960656,122.489123 L50.4665574,127.240702 L58.8068852,127.240702 M42.6960656,83.6975439 L58.8068852,83.6975439 M42.6960656,76.8947368 L50.4665574,75.2849123 L58.8068852,75.2849123 M42.6960656,70.9487719 L50.4665574,66.8722807 L58.8068852,66.8722807 M42.6960656,63.2112281 L50.4665574,58.4596491 L58.8068852,58.4596491" id="Shape"></path>
                        </g>
                    </g>
                </g>
            </g>
        </g>
    </g>
</svg>