<?xml version="1.0" encoding="UTF-8"?>
<svg width="707px" height="754px" viewBox="0 0 707 754" version="1.1" xmlns="http://www.w3.org/2000/svg" xmlns:xlink="http://www.w3.org/1999/xlink">
    <!-- Generator: Sketch 60 (88103) - https://sketch.com -->
    <title>f3e796181082d5f33be0e417a0b663ea</title>
    <desc>Created with Sketch.</desc>
    <g id="Symbols" stroke="none" stroke-width="1" fill="none" fill-rule="evenodd" opacity="0.07">
        <g id="Футер" transform="translate(-597.000000, 12.000000)" stroke="#FFFFFF" stroke-width="2">
            <g transform="translate(0.000000, -11.000000)" id="f3e796181082d5f33be0e417a0b663ea">
                <g transform="translate(598.000000, 0.000000)">
                    <path d="M97.6690645,367.197691 L97.6690645,323 M215.107904,604.47565 L215.107904,665 M272.64226,583.833783 L282,583.833783" id="Shape"></path>
                    <path d="M625,122.993886 L625,76.3657971 C625,66.0908204 617.668264,53.8171933 608.624199,48.9534562 L554.269689,19.7072473 C540.761907,12.4408774 519.01056,12.8661221 505.773146,20.7118881 L427.509648,67.0795145 L389.350693,47.9488155 C384.765045,45.6524937 377.767293,46.3382009 373.727681,49.4903278 L360.129776,60.0895536 L357.807795,67.0795145 L313.663641,48.4431625 L299.72115,60.0895536 L222.772382,33.639329 C220.413291,32.8260484 218.812291,30.0779041 219.321218,27.5317511 L221.229696,17.9796905 C222.236948,12.8980155 219.321218,6.97116653 214.724967,4.66421367 L208.135417,1.36325115 C203.549769,-0.938386153 196.541414,-0.257994524 192.496501,2.89413232 L182.545909,10.6548493 C180.542008,12.2176239 177.101446,12.4621396 174.885491,11.1970364 L170.676237,8.78377235 C166.249629,6.24825043 159.347301,6.76385971 155.286484,9.95319547 C155.286484,9.95319547 141.730989,20.4886346 127.788498,32.1350257 C113.846007,43.7814168 113.846007,55.4331234 113.846007,55.4331234 L113.846007,99.6957882 C113.846007,99.6957882 27.8849824,148.620199 20.9137368,253.453665 C6.96594427,265.094741 0,265.094741 0,274.418232 C0,283.736408 2.9157301,282.147056 2.9157301,282.147056 C5.15289028,283.024123 6.9712456,285.740374 6.9712456,288.158954 L6.9712456,316.591882 C6.9712456,319.03704 8.70477968,321.971228 10.8836253,323.183176 L74.3511175,358.287132 C74.3511175,358.287132 6.9712456,416.535034 11.6099071,507.388578 C16.2591713,598.242123 90.6102888,588.923947 90.6102888,588.923947 L90.6102888,686.767453 L218.404088,752 L415.89444,628.530182 L415.89444,525.993037 C415.89444,525.993037 462.360575,502.726833 476.303066,463.120598" id="Path" stroke-linecap="round" stroke-linejoin="round"></path>
                    <path d="M699.784923,243.794339 C702.174053,188.119306 684.613157,143.175337 649.385418,128.170982 C593.910999,104.545633 515.636552,164.111275 474.555181,261.222352 C433.468513,358.328114 445.138695,456.204556 500.613114,479.829904 C551.245705,501.393017 620.880085,453.642707 663.884414,371.296809 M681.2599,332.093081 C687.345124,315.684834 692.053236,298.795123 695.335104,281.600211" id="Shape" stroke-linecap="round" stroke-linejoin="round"></path>
                    <path d="M699.936536,244.62777 C701.158623,194.533934 684.708261,154.428116 652.562044,140.813874 C600.474544,118.754349 526.878303,174.600308 488.180633,265.558077 C449.488276,356.510543 460.348915,448.125697 512.436415,470.185222 C559.263624,490.018119 623.471045,446.890448 664.081548,371.895485 M682.120624,332.160772 C688.116511,316.181866 692.710396,299.713645 695.850512,282.941682" id="Shape" stroke-linecap="round" stroke-linejoin="round"></path>
                    <path d="M696.999978,244.814908 C697.021088,200.168755 681.869123,164.762488 653.139561,152.485195 C604.878334,131.861683 536.58883,184.31679 500.616121,269.651425 C464.638129,354.986059 474.596795,440.884555 522.858022,461.513387 C565.624813,479.791021 624.114144,440.687736 661.909527,372.167886 M679.629084,333.724213 C685.667167,317.824885 690.240462,301.400201 693.291211,284.657596" id="Shape" stroke-linecap="round" stroke-linejoin="round"></path>
                    <circle id="Oval" stroke-linecap="round" stroke-linejoin="round" cx="516.5" cy="438.5" r="4.5"></circle>
                    <circle id="Oval" stroke-linecap="round" stroke-linejoin="round" cx="501.5" cy="421.5" r="4.5"></circle>
                    <circle id="Oval" stroke-linecap="round" stroke-linejoin="round" cx="491.5" cy="397.5" r="4.5"></circle>
                    <circle id="Oval" stroke-linecap="round" stroke-linejoin="round" cx="486.5" cy="370.5" r="4.5"></circle>
                    <circle id="Oval" stroke-linecap="round" stroke-linejoin="round" cx="491.5" cy="333.5" r="4.5"></circle>
                    <circle id="Oval" stroke-linecap="round" stroke-linejoin="round" cx="501.5" cy="295.5" r="4.5"></circle>
                    <circle id="Oval" stroke-linecap="round" stroke-linejoin="round" cx="516.5" cy="262.5" r="4.5"></circle>
                    <circle id="Oval" stroke-linecap="round" stroke-linejoin="round" cx="533.5" cy="230.5" r="4.5"></circle>
                    <circle id="Oval" stroke-linecap="round" stroke-linejoin="round" cx="557.5" cy="201.5" r="4.5"></circle>
                    <circle id="Oval" stroke-linecap="round" stroke-linejoin="round" cx="581.5" cy="183.5" r="4.5"></circle>
                    <circle id="Oval" stroke-linecap="round" stroke-linejoin="round" cx="602.5" cy="174.5" r="4.5"></circle>
                    <circle id="Oval" stroke-linecap="round" stroke-linejoin="round" cx="628.5" cy="170.5" r="4.5"></circle>
                    <circle id="Oval" stroke-linecap="round" stroke-linejoin="round" cx="649.5" cy="179.5" r="4.5"></circle>
                    <path d="M623.158319,200.141926 C623.158319,196.299474 620.441736,194.731453 617.094991,196.663383 L598.905009,207.179287 C595.537082,209.127271 592.841681,213.799222 592.841681,217.657729 L592.841681,237.089408 C592.841681,240.969321 590.342214,246.759758 587.22847,250.040292 L576.213867,261.685384 C573.105418,264.965918 568.673099,266.512532 566.290132,265.142521 L554.396479,258.265709 C552.045285,256.906401 548.20606,259.127317 545.844275,263.226647 L532.981548,285.526785 C530.58799,289.652873 530.603876,294.051892 532.965661,295.4112 L544.859315,302.288012 C547.236986,303.658023 548.116037,308.271107 546.829234,312.600555 L542.259233,327.981068 C540.972431,332.305165 537.212638,337.383838 533.855302,339.326471 L517.03685,349.039634 C513.711287,350.966212 511,355.664921 511,359.534132 L511,380.544533 C511,384.445854 513.700696,385.987116 517.03685,384.060538 L533.855302,374.347375 C537.212638,372.404742 540.972431,373.13256 542.259233,375.979614 L546.829234,386.072741 C548.110741,388.909092 547.236986,394.549684 544.859315,398.665068 L532.965661,419.284803 C530.609172,423.362726 530.614467,427.793855 532.981548,429.163866 L545.84957,436.591894 C548.227242,437.967256 552.034694,435.751692 554.396479,431.668417 L566.290132,411.054034 C568.673099,406.93865 573.100123,403.347723 576.208571,403.053384 L587.233766,401.956305 C590.326327,401.651264 592.841681,404.541131 592.841681,408.421044 L592.841681,427.858074 C592.841681,431.71123 595.563559,433.268547 598.905009,431.336617 L617.089696,420.826065 C620.473509,418.878081 623.158319,414.200778 623.158319,410.347622 L623.158319,390.899889 C623.158319,387.03603 625.663082,381.23489 628.77153,377.954357 L639.796724,366.314616 C642.894582,363.034082 647.326901,361.487468 649.704572,362.86283 L661.598226,369.72894 C663.954715,371.09895 667.783349,368.872683 670.155725,364.773353 L683.023748,342.478566 C685.406715,338.352479 685.390828,333.95346 683.034339,332.5888 L671.145981,325.711988 C668.768309,324.347328 667.883963,319.723542 669.170766,315.399445 L673.746063,300.024283 C675.022274,295.694835 678.776771,290.616162 682.144698,288.678881 L698.96315,278.965717 C702.288713,277.039139 705,272.335079 705,268.460517 L705,247.455467 C705,243.559498 702.299304,242.007533 698.96315,243.93411 L682.144698,253.657977 C678.792657,255.595258 675.022274,254.86744 673.740767,252.020386 L669.16547,241.921907 C667.883963,239.085556 668.763014,233.450316 671.145981,229.334932 L683.034339,208.715197 C685.390828,204.631923 685.385533,200.206145 683.023748,198.841486 L670.155725,191.408106 C667.772758,190.032744 663.960011,192.248308 661.598226,196.331583 L649.704572,216.951318 C647.332196,221.066702 642.9899,224.379345 639.971475,224.42751 C639.971475,224.42751 631.18627,224.015436 623.158319,226.600262 L623.158319,200.141926 L623.158319,200.141926 Z" id="Path" stroke-linecap="round" stroke-linejoin="round"></path>
                    <path d="M608.002657,246.825615 C640.029771,228.554199 666,243.368574 666,279.911406 C666,316.464843 640.029771,360.902665 608.002657,379.168779 C575.964915,397.4508 550,382.631122 550,346.082988 C550,309.540156 575.964915,265.102333 608.002657,246.825615 L608.002657,246.825615 Z" id="Path" stroke-linecap="round" stroke-linejoin="round"></path>
                    <path d="M617.507938,283.759734 C634.897102,272.644918 649,281.661584 649,303.880457 C649,326.09933 634.897102,353.13319 617.507938,364.242626 C600.10819,375.352063 586,366.340776 586,344.121903 C586,321.89227 600.10819,294.869171 617.507938,283.759734 L617.507938,283.759734 Z" id="Path" stroke-linecap="round" stroke-linejoin="round"></path>
                    <path d="M627.324136,311.075567 C633.82317,307.897415 638.054229,312.000714 636.770469,320.245406 C635.486709,328.484656 629.17489,337.74701 622.681204,340.925162 C616.17682,344.103314 611.945762,339.994573 613.229522,331.749881 C614.513282,323.505188 620.825101,314.248277 627.324136,311.070125 L627.324136,311.075567 Z" id="Path" stroke-linecap="round" stroke-linejoin="round"></path>
                    <path d="M615.504465,341.827767 C607.625119,345.873323 602.552261,340.76847 604.183201,330.431011 C605.814141,320.088229 613.524038,308.430641 621.403383,304.385086 C627.969504,301.015564 632.592265,304.001823 633,311.086868 M189.437341,716.169412 C189.437341,718.628684 191.253615,721.417988 193.498805,722.402762 L198.444577,724.579909 C200.689766,725.564683 203.602159,724.766218 204.989517,722.727471 L207.870138,718.506253 C209.246905,716.499444 209.130409,713.369462 207.52065,711.410561 L205.339004,708.749011 C203.776902,706.832696 200.578566,704.719425 198.227471,704.032745 L193.71591,702.707294 C191.354225,702.015291 189.437341,703.431235 189.437341,705.901153 L189.437341,716.174735 L189.437341,716.169412 Z M139,666.68588 C139,666.68588 155.245854,678.348791 155.245854,664.354362 L155.245854,610.69752 C155.245854,610.69752 155.245854,599.029286 141.319323,596.697768" id="Shape" stroke-linecap="round" stroke-linejoin="round"></path>
                    <ellipse id="Oval" stroke-linecap="round" stroke-linejoin="round" cx="119.5" cy="589.5" rx="7.5" ry="4.5"></ellipse>
                    <ellipse id="Oval" stroke-linecap="round" stroke-linejoin="round" cx="119.5" cy="565.5" rx="7.5" ry="4.5"></ellipse>
                    <path d="M111.703177,470.9889 C107.452786,468.611766 104,470.674436 104,475.524642 L104,518.627517 C104,523.509702 107.316354,529.532485 111.467044,532.122815 L116.420585,535.214155 C126.075793,541.231609 136.570584,537.175557 139.871196,526.17998 L144.027133,512.311589 C147.322497,501.305352 141.980649,487.905992 132.015845,482.33625 L111.697929,470.98357 L111.703177,470.9889 Z" id="Path" stroke-linecap="round" stroke-linejoin="round"></path>
                    <path d="M91.0021296,589 L91.0021296,377.020914 C91.0021296,372.163922 94.9951323,368.229546 99.8452997,368.229546 L119.490873,368.229546 C124.372984,368.229546 128.328719,364.289867 128.328719,359.374549 L128.328719,349.639354 M7,284.568381 L88.670216,324.076515 L88.670216,300.836125 L37.3308488,275.278588 M49.0010648,279.918182 C49.0010648,279.918182 46.6638272,193.939872 144.668086,117.251356 C116.663827,103.306061 114.331914,100.983612 114.331914,100.983612 M116.669151,47.5354863 L139.998935,59.1530304 M179.668086,15 L149.177517,39.6667344 C145.397475,42.7315178 142.330849,49.1368091 142.330849,53.999104 L142.330849,96.3334134 L146.994676,98.6611641 L146.994676,117.251356 M147,100.983612 L182,75.4207736" id="Shape" stroke-linecap="round" stroke-linejoin="round"></path>
                    <circle id="Oval" stroke-linecap="round" stroke-linejoin="round" cx="155.5" cy="75.5" r="7.5"></circle>
                    <path d="M237,68.9959288 L195.156142,47.9984341 L206.781204,36.328427 L206.781204,27.0009395 L202.135422,20 L169.593735,48.0037581 L155.645782,48.0037581 L151,57.3365694 L164.947953,57.3365694 L164.947953,66.6693808 L220.729156,92.3306192 L220.729156,99.5232194 C220.729156,101.998837 222.52701,104.804537 224.73853,105.78946 L258.553034,120.877416 C260.769857,121.867663 264.185249,121.585496 266.216453,120.227899 L269.541687,118.002505 L323,139" id="Path" stroke-linecap="round" stroke-linejoin="round"></path>
                    <path d="M218,90 L237.465261,71.2904213 C242.253993,66.6875975 251.34991,64.7230403 257.668896,66.8675962 L286,76.4846694" id="Path" stroke-linecap="round" stroke-linejoin="round"></path>
                    <path d="M298.32992,60 L263.925404,98.4132575 C262.306869,100.220319 260.997133,103.670643 260.997133,106.117044 L260.997133,117.899928 M270.33033,71.5820991 L250.141236,91.4914739 C248.40557,93.2034265 247,96.590345 247,99.020895 L247,113.266032 M279.658203,83.1589144 L344.995905,110.951725 M429,64.6338964 L334.76293,124.494116 C322.379008,132.3617 312.337702,150.574974 312.337702,165.179409 L312.337702,296.207189 L368.336883,324" id="Shape" stroke-linecap="round" stroke-linejoin="round"></path>
                    <path d="M318.926949,144.775568 L299.274155,144.775568 C294.803051,144.775568 291.17127,148.402071 291.17127,152.873174 L291.17127,160.97078 L314.308041,167.912339 M194,80 L194,126.468855 C194,128.912918 195.789497,131.631475 198.064639,132.565814 L268.588768,161.609509 C270.832238,162.53329 272.653407,165.214896 272.653407,167.65368 L272.653407,191.30249 C272.653407,193.720158 274.390117,196.570684 276.543848,197.679222 L349,235" id="Shape" stroke-linecap="round" stroke-linejoin="round"></path>
                    <path d="M364.499623,277.336256 C355.558402,277.336256 346,270.047826 346,261.045097 L346,195.619587 C346.089676,186.70204 355.632253,179.328427 364.499623,179.328427 M598,44 L400.259231,167.647772 C391.998493,172.811963 384.434062,184.939826 383.363225,194.62934 L382.993971,197.999374 L379.232856,202.7483 C376.199699,206.570866 373.746797,213.678284 373.746797,218.528364 L373.746797,259.139137 C373.746797,264.037133 376.885456,270.372584 380.736247,273.29541 L392.23587,282 M382.993971,197.999374 L406.114544,212.001253" id="Shape" stroke-linecap="round" stroke-linejoin="round"></path>
                    <path d="M521,170.325419 L476.943256,147 C476.943256,147 453.753547,149.331477 428.246453,181.993452 C402.73936,214.655427 402.73936,223.986659 400.416686,254.311833 C391.147151,282.310853 393.464535,289.305285 393.464535,296.30504 C409.696802,303.304795 456.07093,326.635537 456.07093,326.635537 M379.549651,282.30553 L379.549651,343.280582 C379.549651,345.707874 381.449059,348.230979 383.803479,348.933616 L398.485533,353.298482 C400.834662,354.001119 402.73936,356.588101 402.73936,358.983454 L402.73936,394.535822 C402.73936,396.97376 403.919216,400.540175 405.384776,402.499042 L420.966271,423.402492 C422.42654,425.361359 425.442313,427.788651 427.595681,428.773407 L445.129493,436.789856 C447.330478,437.801228 447.53153,439.728157 445.473397,441.176015 L386.734599,482.54643 C382.766476,485.341009 375.97305,485.80411 371.682186,483.648292 L361,478.272055 L361,464.272545 L409.696802,429.284416" id="Shape" stroke-linecap="round" stroke-linejoin="round"></path>
                    <path d="M362,466.653517 L362,340.576413 C362,338.136005 360.175519,335.323422 357.986141,334.323865 L300.853044,308.197146 L300.853044,298.642869 C300.853044,296.197145 298.921241,293.581283 296.640639,292.826298 L266.987451,283.032766 C262.308193,281.490896 254.843918,281.692934 250.229053,283.521911 L243.296024,286.270693 C238.713356,288.083719 235,293.480264 235,298.462098 L235,453.085062 C235,458.003095 238.579203,463.766498 242.984789,465.946383 L302.280433,495.321663 C306.686019,497.501547 310.259855,503.243684 310.259855,508.151083 L310.259855,537" id="Path" stroke-linecap="round" stroke-linejoin="round"></path>
                    <path d="M250,468.126362 L250,496.746083 C250,501.65476 246.664159,503.436823 242.591145,500.747722 L193.25888,468.227736 C191.21707,466.888521 189.567711,463.772578 189.567711,461.376931 L189.567711,425.789022 C189.567711,423.35069 190.96781,419.962635 192.723236,418.196579 L208.161445,402.659549 L236.057351,423.708169 M236.052047,404.996506 L208.161445,400.317256 L180.26554,362.9046 L129.135422,334.839772 L105.890602,334.839772 M194.218796,101 C194.218796,101 136.109398,133.738742 101.24482,185.183812 L125.136655,197.204735 C127.352424,198.355353 128.342473,201.006858 127.427726,203.340582 L109.274174,247.182538 C107.407375,251.685715 101.934262,255.345881 97.0604341,255.345881 L100.77812,255.345881 C95.8989887,255.345881 89.8902319,251.888465 87.3817218,247.684076 L78,231.954968 L84.9739763,199.221561" id="Shape" stroke-linecap="round" stroke-linejoin="round"></path>
                    <path d="M126.74231,202.412337 L99.6809014,229.663423 C97.9650704,231.39128 94.5810704,232.793831 92.1661972,232.793831 L78,232.793831 M98.891831,186.05102 L98.891831,208.294519 C98.891831,212.790148 95.9526761,218.656331 92.3939155,221.344109 L89.608338,223.445269 L82.6443944,216.437847 M266,158 L202.79493,218.555006 C185.144113,235.460278 169.500394,268.98818 167.837521,293.51949 L163.876282,352" id="Shape" stroke-linecap="round" stroke-linejoin="round"></path>
                    <path d="M271.00047,194 L225.588095,242.627714 C212.266356,256.893754 201.467233,284.289649 201.467233,303.854353 L201.467233,329.004422 L178.287725,363.865168 L163.543378,381.624716 C158.889496,387.236627 158.815457,396.437613 163.347704,402.129163 L173.649708,415.057265 L173.649708,461.593121 L163.654437,471.627664 C160.21691,475.078697 160.655856,480.239319 164.52704,483.069167 L175.823282,491.309172 C179.742063,494.176185 185.702206,493.703658 189.160887,490.236697 L192.196488,487.189169 L291.858326,543.037507 L220.008725,605.86224 L210.277879,609.11683 C207.966803,609.891985 204.33889,609.631831 202.154739,608.532809 L192.196488,603.536775 L192.196488,671.017749 C192.196488,671.017749 194.512852,696.608488 215.370708,698.939263 C236.233852,701.264728 335.895691,636.10922 347.488089,624.476583 C359.075199,612.843946 386.887436,587.247898 391.525454,575.609952 C396.158182,563.977315 396.158182,531.399561 391.525454,526.74863 C386.887436,522.092389 375.300326,517.441458 366.029581,524.417855 C356.758835,531.399561 324.308581,556.995609 319.670563,559.321074 C315.037835,561.651849 305.761801,554.670143 301.129072,550.013903 C296.496343,545.362972 308.083453,545.362972 308.083453,538.381266" id="Path" stroke-linecap="round" stroke-linejoin="round"></path>
                    <circle id="Oval" stroke-linecap="round" stroke-linejoin="round" cx="183.5" cy="390.5" r="7.5"></circle>
                    <circle id="Oval" stroke-linecap="round" stroke-linejoin="round" cx="182.5" cy="477.5" r="4.5"></circle>
                    <path d="M251.637764,354.128524 C249.07644,353.542668 247,355.01777 247,357.371657 L247,371.678061 C247,374.058102 249.065031,376.464298 251.637764,377.055385 L262.362236,379.51389 C264.929264,380.099746 267,378.624643 267,376.260294 L267,361.959122 C267,359.579081 264.934969,357.178116 262.362236,356.587028 L251.637764,354.128524 L251.637764,354.128524 Z M251.637764,390.807317 C249.07644,390.221461 247,391.696563 247,394.055682 L247,408.356854 C247,410.742126 249.065031,413.143091 251.637764,413.734178 L262.362236,416.192683 C264.929264,416.778539 267,415.303437 267,412.944318 L267,398.643146 C267,396.263105 264.934969,393.856909 262.362236,393.265822 L251.637764,390.807317 Z M251.637764,427.491341 C249.07644,426.900254 247,428.380588 247,430.734475 L247,445.040878 C247,447.420919 249.065031,449.821884 251.637764,450.412972 L262.362236,452.871476 C264.929264,453.457332 267,451.98223 267,449.628343 L267,435.316708 C267,432.936667 264.934969,430.530471 262.362236,429.939384 L251.637764,427.48088 L251.637764,427.491341 Z" id="Shape" stroke-linecap="round" stroke-linejoin="round"></path>
                    <circle id="Oval" stroke-linecap="round" stroke-linejoin="round" cx="281.5" cy="363.5" r="7.5"></circle>
                    <circle id="Oval" stroke-linecap="round" stroke-linejoin="round" cx="281.5" cy="429.5" r="7.5"></circle>
                    <circle id="Oval" stroke-linecap="round" stroke-linejoin="round" cx="305.5" cy="450.5" r="7.5"></circle>
                    <circle id="Oval" stroke-linecap="round" stroke-linejoin="round" cx="305.5" cy="400.5" r="7.5"></circle>
                    <path d="M293.700408,375.461741 L303,375.461741 L303,384.781338 L293.700408,384.781338 L293.700408,375.461741 Z M275.101225,459.343437 L289.053265,459.343437 L289.053265,473.325492 L275.101225,473.325492 L275.101225,459.343437 Z M105.374395,366.142143 L105.374395,321.872724 C105.374395,321.872724 112.350415,310.21924 110.026843,300.899642 C107.697967,291.580044 68.1707236,272.940848 68.1707236,272.940848 C68.1707236,272.940848 72.8231718,242.653485 77.4756201,231 M72.8231718,359.151115 L96.0748033,368.470713 M77.5445846,375.461741 C77.5445846,375.461741 21.747035,422.05973 24.0706067,510.603883 C26.3941783,599.142721 93.8201961,587.494552 93.8201961,587.494552" id="Shape" stroke-linecap="round" stroke-linejoin="round"></path>
                    <path d="M77.408936,359.712401 L77.408936,385.278805 L89.0291547,394.575197 M91.3574413,422.464373 C91.3574413,422.464373 61.1374478,448.030777 61.1374478,494.51804 C61.1374478,541 91.3574413,541 91.3574413,541 M10,308.579594 L35.5687239,324.849606 M184.329798,359.712401 L233.144262,385.278805 M205.252555,329.500453 L235.467245,343.447693 M298.230215,292.309582 L289.723218,300.815807 C287.999544,302.539325 286.604693,305.94924 286.604693,308.33565 L286.604693,315.961555 C286.604693,318.395693 288.338975,321.227566 290.529368,322.314708 L338.47404,346.141684 C340.637914,347.21822 342.393411,350.066003 342.393411,352.505444 L342.393411,499.423438 C342.393411,501.857576 340.611396,502.939415 338.447522,501.857576 L323.798939,494.51804 M358.664899,336.474073 L342.393411,348.087934 M379.582353,348.087934 L363.310865,359.712401 M295.901929,208.636751 L314.501704,194.689511 L347.039377,208.636751 M356.341916,66.8627958 L395.853841,87.778352 M207.575538,52.9155562 L223.847027,32 M409.802347,57.5664038 L416.628098,52.1041769 C419.279905,49.9829237 423.485671,50.035955 426.042013,52.2261489 L437.694053,62.2119482 M402.828094,257.446786 L424.46684,262.442338 C429.202967,263.534783 435.683984,261.540805 439.041171,257.881643 L455.630877,239.782051 C457.274997,237.984289 459.051708,234.638012 459.608587,232.198571 L464.588681,210.641335 C465.140257,208.254925 467.070772,204.940467 468.831572,203.307102 L491.621202,182.142299 C495.217053,178.801325 494.495761,174.648972 489.934653,172.824694 L478.987993,168.444307 C476.72335,167.542774 473.50936,168.17915 471.74856,169.93979 L452.454012,189.232588 C450.71973,190.966712 450.343173,194.084954 451.60013,196.179692 L456.288525,203.991207 C456.288525,203.991207 426.073835,210.964826 430.725104,255.124014 M486.508518,117.995603 C486.508518,117.995603 484.180232,134.265615 505.102989,138.91116 C526.020444,143.562007 533,129.614768 533,120.318376 C533,111.021984 505.102989,106.371136 505.102989,106.371136" id="Shape" stroke-linecap="round" stroke-linejoin="round"></path>
                    <path d="M487.146822,129.684336 C487.146822,129.684336 475.417183,129.684336 480.106897,139.017243 C484.801965,148.344828 534.070734,167 534.070734,167 M527.036163,134.350789 L545.805728,146.008941 M559.880224,134.350789 L537.877112,120.436564 C535.778519,119.106332 535.730337,116.924752 537.75398,115.59452 L547.802604,108.927398 C551.882013,106.224367 558.456179,106.399958 562.380335,109.230691 L581,122.692637" id="Shape" stroke-linecap="round" stroke-linejoin="round"></path>
                    <ellipse id="Oval" stroke-linecap="round" stroke-linejoin="round" cx="588" cy="90" rx="16" ry="10"></ellipse>
                    <path d="M573.948311,87.3313605 L573.948311,108.403886 C573.948311,108.403886 573.948311,112.933841 587.873424,112.933841 C601.798537,112.933841 601.798537,105.950381 601.798537,105.950381 L601.798537,85 M601.793243,98.9669207 L625,112.933841 M471.850227,473.694625 L461.86968,473.694625 C454.562966,473.694625 444.116484,477.581996 438.583502,482.340308 L444.709492,477.072177 C437.911072,482.919165 434.951324,494.485687 438.112271,502.95081 L439.356531,506.275255 M455.600731,455.075604 L390.629223,499.297106 C390.629223,499.297106 374.385023,513.264026 369.741553,506.275255 C365.103379,499.297106 379.023197,485.330185 379.023197,485.330185 M379.023197,564.463678 C390.629223,564.463678 388.304841,552.828117 388.304841,545.844657 C388.304841,538.861197 381.347579,534.209097 381.347579,534.209097 C381.347579,534.209097 372.060641,538.861197 372.060641,545.844657 C372.060641,552.828117 367.422466,564.463678 379.023197,564.463678 Z M263,569.121088 L263,593.305634 C263,603.08779 270.645576,612.997399 280.154892,615.23848 C280.154892,615.23848 288.52055,618 297.807489,618 C307.089133,618 321.008951,611.01654 330.29589,604.033079 C339.577534,597.049619 344.221003,594.723569 346.534796,576.099238 C348.859178,557.480217 351.178265,550.502067 337.253152,545.844657" id="Shape" stroke-linecap="round" stroke-linejoin="round"></path>
                    <path d="M286,548 L286,581.358118 C286,586.316758 289.218594,592.439926 293.217453,595.053408 L300.357907,599.722256 C302.37017,601.031681 305.794097,601.396602 307.996293,600.52723 L318.006274,596.609691 C320.213603,595.740319 322,593.078538 322,590.599219 L322,562.113876" id="Path" stroke-linecap="round" stroke-linejoin="round"></path>
                    <path d="M307.385525,557.524945 L298.161836,568.018766 L298.161836,583.756858 L312,596.875455 M219.757851,603.820284 L219.757851,664 L293.547361,617.709942 M90.6209479,504.290058 C90.6209479,504.290058 65.2544885,478.834487 92.9255546,458" id="Shape" stroke-linecap="round" stroke-linejoin="round"></path>
                    <line x1="271" y1="579.5" x2="280" y2="579.5" id="Path"></line>
                    <path d="M271.05296,584.595271 L285.049008,584.595271 M371.340231,600.56576 C371.340231,600.56576 383.005378,609.860669 390.003402,607.538267 C396.996104,605.215865 401.663227,593.593252 392.334302,581.981244 M229.660846,693.520152 L229.660846,740 M401.663227,370.504831 L438.978926,386.772247 M401.663227,384.449845 L438.978926,400.717262 M466.971021,186.923749 C471.632823,189.246151 480.967069,177.62884 478.630847,175.306439 C476.299946,172.978735 462.303898,184.601348 466.971021,186.923749 Z M252.054522,318.139445 C249.665083,317.540286 247.727987,319.040834 247.727987,321.426863 L247.727987,335.928618 C247.727987,338.341158 249.654439,340.774908 252.054522,341.374066 L262.059302,343.866141 C264.454063,344.459997 266.385837,342.964752 266.385837,340.578723 L266.385837,326.076968 C266.385837,323.664428 264.459384,321.225376 262.059302,320.626217 L252.054522,318.134142 L252.054522,318.139445 Z" id="Shape" stroke-linecap="round" stroke-linejoin="round"></path>
                </g>
            </g>
        </g>
    </g>
</svg>