<?xml version="1.0" encoding="UTF-8"?>
<svg width="73px" height="70px" viewBox="0 0 73 70" version="1.1" xmlns="http://www.w3.org/2000/svg" xmlns:xlink="http://www.w3.org/1999/xlink">
    <!-- Generator: Sketch 60 (88103) - https://sketch.com -->
    <title>patent 2</title>
    <desc>Created with Sketch.</desc>
    <defs>
        <linearGradient x1="50%" y1="0.174096505%" x2="50%" y2="100%" id="linearGradient-1">
            <stop stop-color="#F38600" offset="0.0580658784%"></stop>
            <stop stop-color="#E45200" offset="100%"></stop>
        </linearGradient>
        <linearGradient x1="50%" y1="0.11609804%" x2="50%" y2="100%" id="linearGradient-2">
            <stop stop-color="#F38600" offset="0.0580658784%"></stop>
            <stop stop-color="#E45200" offset="100%"></stop>
        </linearGradient>
        <linearGradient x1="50%" y1="0.11609804%" x2="50%" y2="100%" id="linearGradient-3">
            <stop stop-color="#F38600" offset="0.0580658784%"></stop>
            <stop stop-color="#E45200" offset="100%"></stop>
        </linearGradient>
        <linearGradient x1="50%" y1="0.11609804%" x2="50%" y2="100%" id="linearGradient-4">
            <stop stop-color="#F38600" offset="0.0580658784%"></stop>
            <stop stop-color="#E45200" offset="100%"></stop>
        </linearGradient>
        <linearGradient x1="50%" y1="0.11609804%" x2="50%" y2="100%" id="linearGradient-5">
            <stop stop-color="#F38600" offset="0.0580658784%"></stop>
            <stop stop-color="#E45200" offset="100%"></stop>
        </linearGradient>
        <linearGradient x1="50%" y1="0.11609804%" x2="50%" y2="100%" id="linearGradient-6">
            <stop stop-color="#F38600" offset="0.0580658784%"></stop>
            <stop stop-color="#E45200" offset="100%"></stop>
        </linearGradient>
        <linearGradient x1="50%" y1="0.11609804%" x2="50%" y2="100%" id="linearGradient-7">
            <stop stop-color="#F38600" offset="0.0580658784%"></stop>
            <stop stop-color="#E45200" offset="100%"></stop>
        </linearGradient>
        <linearGradient x1="50%" y1="0.11609804%" x2="50%" y2="100%" id="linearGradient-8">
            <stop stop-color="#F38600" offset="0.0580658784%"></stop>
            <stop stop-color="#E45200" offset="100%"></stop>
        </linearGradient>
    </defs>
    <g id="Page-1" stroke="none" stroke-width="1" fill="none" fill-rule="evenodd">
        <g id="Главная-v1" transform="translate(-735.000000, -584.000000)" fill-rule="nonzero">
            <g id="Шапка">
                <g id="Group-17" transform="translate(222.000000, 334.000000)">
                    <g id="Group-15" transform="translate(513.000000, 242.000000)">
                        <g id="patent-2" transform="translate(0.000000, 8.000000)">
                            <g id="patent">
                                <path d="M66.2365591,7.10542736e-15 L15.655914,7.10542736e-15 C12.3317373,0.00411627097 9.6385249,2.69732867 9.6344086,6.02150538 L9.6344086,52.9892473 L1.20430108,52.9892473 C0.539230473,52.9892473 -1.13686838e-13,53.5284778 -1.13686838e-13,54.1935484 L-1.13686838e-13,56.6021505 C0.00411627097,59.9263272 2.69732867,62.6195396 6.02150538,62.6236559 L43.3836525,62.6236559 L43.3836525,68.6451613 C43.3836525,69.1014785 43.6412131,69.5183971 44.0493111,69.7224462 C44.4574093,69.9264953 44.9454805,69.8823925 45.310652,69.608367 L49.4051579,66.5376344 L53.499664,69.608367 C53.7078294,69.7653729 53.9618616,69.849581 54.2223622,69.849581 C54.4093582,69.8512265 54.594002,69.8100638 54.7621808,69.7289147 C55.172043,69.5236896 55.4296036,69.1032426 55.4266633,68.6451613 L55.4266633,62.6236559 L56.6021505,62.6236559 C59.9263272,62.6195396 62.6195396,59.9263272 62.6236559,56.6021505 L62.6236559,9.6344086 L71.0537634,9.6344086 C71.718834,9.6344086 72.2580645,9.09517813 72.2580645,8.43010753 L72.2580645,6.02150538 C72.2539482,2.69732867 69.5607358,0.00411627097 66.2365591,7.10542736e-15 Z M43.3836525,60.2150538 L6.02150538,60.2150538 C4.02629372,60.2150538 2.40860215,58.5973622 2.40860215,56.6021505 L2.40860215,55.3978495 L43.3836525,55.3978495 L43.3836525,60.2150538 Z M53.0180611,66.2365591 L50.1278563,64.0690523 C49.6997649,63.7473959 49.1111391,63.7473959 48.6824597,64.0690523 L45.7922547,66.2365591 L45.7922547,52.7857864 C46.0251176,52.8040154 46.2591566,52.7998993 46.4908434,52.7722615 C47.1859039,53.6690188 48.2567204,54.1935484 49.391045,54.1935484 C50.5253695,54.1935484 51.5955982,53.6690188 52.2906586,52.7722615 C52.530578,52.8010753 52.7728495,52.8057796 53.0133568,52.7857864 L53.0180611,66.2365591 Z M54.5669523,46.9436324 C54.2458837,47.0577117 53.9877351,47.3029233 53.8577789,47.6175235 C53.7272346,47.9327117 53.7360552,48.2878864 53.8830645,48.5960181 C54.1106351,49.0735047 54.0141969,49.6427251 53.641381,50.0178932 C53.2679771,50.3930611 52.6993448,50.4930276 52.2206821,50.2678091 C51.9131384,50.1207997 51.5573756,50.1113911 51.2421875,50.2413475 C50.9264113,50.3718918 50.6817876,50.6300403 50.5671203,50.9516969 C50.3912971,51.4503529 49.9196909,51.7843582 49.391045,51.7843582 C48.8618111,51.7843582 48.390205,51.4503529 48.2143817,50.9516969 C48.1003025,50.6300403 47.8550907,50.3718918 47.5399025,50.2413475 C47.2241263,50.1113911 46.8683636,50.1207997 46.5608199,50.2678091 C46.0821573,50.4930276 45.5135249,50.3930611 45.140709,50.0178932 C44.767305,49.6427251 44.670867,49.0735047 44.8990255,48.5960181 C45.0454469,48.2884745 45.0548555,47.9327117 44.9243111,47.6181115 C44.7943548,47.3029233 44.5367943,47.0582997 44.2157258,46.9436324 C43.7164819,46.766045 43.3824765,46.2932627 43.3824765,45.7634409 C43.3824765,45.233619 43.7164819,44.7608367 44.2157258,44.5832493 C44.5367943,44.4685821 44.7937668,44.2239584 44.9237231,43.9093582 C45.0542674,43.5947581 45.0448588,43.2395833 44.8990255,42.9320396 C44.6696909,42.4545531 44.766129,41.8847446 45.139533,41.5089885 C45.5123488,41.1338206 46.0815692,41.0332661 46.5608199,41.2590726 C46.8683636,41.4060821 47.2241263,41.4154907 47.5399025,41.2855342 C47.8550907,41.15499 48.1003025,40.8968414 48.2143817,40.5751848 C48.390205,40.0765289 48.8618111,39.7425235 49.391045,39.7425235 C49.9196909,39.7425235 50.3912971,40.0765289 50.5671203,40.5751848 C50.6817876,40.8968414 50.9264113,41.15499 51.2421875,41.2855342 C51.5573756,41.4154907 51.9131384,41.4060821 52.2206821,41.2590726 C52.6993448,41.0338541 53.2679771,41.1338206 53.641381,41.5089885 C54.0141969,41.8841566 54.1106351,42.4533771 53.8830645,42.9308636 C53.7360552,43.2389953 53.7272346,43.5941701 53.8577789,43.9093582 C53.9877351,44.2239584 54.2458837,44.4691701 54.5669523,44.5832493 C55.0650201,44.7620127 55.3978495,45.234207 55.3978495,45.7634409 C55.3978495,46.2926747 55.0650201,46.764869 54.5669523,46.9436324 L54.5669523,46.9436324 Z M61.3264448,2.55913978 C61.2582326,2.65557796 61.1976647,2.75789643 61.1353326,2.85903905 C61.0065523,3.06485215 60.8912971,3.27772185 60.7883905,3.49705985 C60.734291,3.61760753 60.6837197,3.7287466 60.6366767,3.84635413 C60.547295,4.08274533 60.4720262,4.32384069 60.4126344,4.56905234 C60.3849966,4.68136757 60.3497143,4.78956649 60.328545,4.90364587 C60.2556283,5.27234551 60.2179939,5.64633729 60.2150538,6.02150538 L60.2150538,56.6021505 C60.2150538,58.5973622 58.5973622,60.2150538 56.6021505,60.2150538 C56.2005208,60.2074093 55.8035954,60.1327285 55.4266633,59.9933636 L55.4266633,51.6161794 C56.1758233,50.828209 56.5292339,49.7444556 56.390457,48.6659946 C57.2854502,47.9691701 57.8088038,46.8977654 57.8088038,45.7634409 C57.8088038,44.6291163 57.2854502,43.5577117 56.390457,42.8608871 C56.532762,41.7365591 56.1475975,40.609291 55.3472782,39.8060315 C54.546959,39.0033602 53.420867,38.6152554 52.2953629,38.7546203 C51.6003025,37.8578629 50.5300738,37.3333333 49.3957493,37.3333333 C48.2614247,37.3333333 47.1906082,37.8578629 46.4955477,38.7546203 C45.3706317,38.6158434 44.2445396,39.0039482 43.4442204,39.8066197 C42.6444892,40.609291 42.2593246,41.7365591 42.4010416,42.8608871 C41.5060484,43.5577117 40.9821068,44.6291163 40.9821068,45.7634409 C40.9821068,46.8977654 41.5060484,47.9691701 42.4010416,48.6659946 C42.2587366,49.7597446 42.6233199,50.8587869 43.390709,51.6514617 L43.390709,52.9892473 L12.0430108,52.9892473 L12.0430108,6.02150538 C12.0430108,4.02629372 13.6607023,2.40860215 15.655914,2.40860215 L61.4193548,2.40860215 C61.3858367,2.45564516 61.3605511,2.50974462 61.3264448,2.55913978 L61.3264448,2.55913978 Z M69.8494624,7.22580645 L62.6236559,7.22580645 L62.6236559,6.02150538 C62.6236559,4.02629372 64.2413475,2.40860215 66.2365591,2.40860215 C68.2317708,2.40860215 69.8494624,4.02629372 69.8494624,6.02150538 L69.8494624,7.22580645 Z" id="Shape" fill="url(#linearGradient-1)"></path>
                                <polygon id="Path" fill="url(#linearGradient-2)" points="39.7419355 9.6344086 44.5591398 9.6344086 44.5591398 12.0430108 39.7419355 12.0430108"></polygon>
                                <polygon id="Path" fill="url(#linearGradient-3)" points="27.6989247 9.6344086 37.3333333 9.6344086 37.3333333 12.0430108 27.6989247 12.0430108"></polygon>
                                <polygon id="Path" fill="url(#linearGradient-4)" points="24.0860215 15.655914 48.172043 15.655914 48.172043 18.0645161 24.0860215 18.0645161"></polygon>
                                <polygon id="Path" fill="url(#linearGradient-5)" points="18.0645161 22.8817204 24.0860215 22.8817204 24.0860215 25.2903226 18.0645161 25.2903226"></polygon>
                                <polygon id="Path" fill="url(#linearGradient-6)" points="18.0645161 28.9032258 31.311828 28.9032258 31.311828 31.311828 18.0645161 31.311828"></polygon>
                                <polygon id="Path" fill="url(#linearGradient-7)" points="26.4946237 22.8817204 54.1935484 22.8817204 54.1935484 25.2903226 26.4946237 25.2903226"></polygon>
                                <polygon id="Path" fill="url(#linearGradient-8)" points="33.7204301 28.9032258 54.1935484 28.9032258 54.1935484 31.311828 33.7204301 31.311828"></polygon>
                                <polygon id="Path" fill="url(#linearGradient-4)" points="18.0645161 34.9247312 42.1505376 34.9247312 42.1505376 37.3333333 18.0645161 37.3333333"></polygon>
                                <polygon id="Path" fill="url(#linearGradient-8)" points="18.0645161 40.9462366 38.5376344 40.9462366 38.5376344 43.3548387 18.0645161 43.3548387"></polygon>
                            </g>
                        </g>
                    </g>
                </g>
            </g>
        </g>
    </g>
</svg>