<?xml version="1.0" encoding="UTF-8"?>
<svg width="70px" height="70px" viewBox="0 0 70 70" version="1.1" xmlns="http://www.w3.org/2000/svg" xmlns:xlink="http://www.w3.org/1999/xlink">
    <!-- Generator: Sketch 60 (88103) - https://sketch.com -->
    <title>stock</title>
    <desc>Created with Sketch.</desc>
    <defs>
        <linearGradient x1="50%" y1="0.174096505%" x2="50%" y2="100%" id="linearGradient-1">
            <stop stop-color="#F38600" offset="0.0580658784%"></stop>
            <stop stop-color="#E45200" offset="100%"></stop>
        </linearGradient>
        <linearGradient x1="50%" y1="0.11609804%" x2="50%" y2="100%" id="linearGradient-2">
            <stop stop-color="#F38600" offset="0.0580658784%"></stop>
            <stop stop-color="#E45200" offset="100%"></stop>
        </linearGradient>
        <linearGradient x1="50%" y1="0.11609804%" x2="50%" y2="100%" id="linearGradient-3">
            <stop stop-color="#F38600" offset="0.0580658784%"></stop>
            <stop stop-color="#E45200" offset="100%"></stop>
        </linearGradient>
        <linearGradient x1="50%" y1="0.11609804%" x2="50%" y2="100%" id="linearGradient-4">
            <stop stop-color="#F38600" offset="0.0580658784%"></stop>
            <stop stop-color="#E45200" offset="100%"></stop>
        </linearGradient>
        <linearGradient x1="50%" y1="0.11609804%" x2="50%" y2="100%" id="linearGradient-5">
            <stop stop-color="#F38600" offset="0.0580658784%"></stop>
            <stop stop-color="#E45200" offset="100%"></stop>
        </linearGradient>
    </defs>
    <g id="Page-1" stroke="none" stroke-width="1" fill="none" fill-rule="evenodd">
        <g id="Главная-v1" transform="translate(-222.000000, -584.000000)" fill-rule="nonzero">
            <g id="Шапка">
                <g id="Group-17" transform="translate(222.000000, 334.000000)">
                    <g id="Group-15" transform="translate(0.000000, 242.000000)">
                        <g id="stock-2" transform="translate(0.000000, 8.000000)">
                            <g id="stock">
                                <polygon id="Path" fill="url(#linearGradient-1)" points="33.7366279 29.2782351 38.3839309 29.2782351 38.3839309 31.6018866 33.7366279 31.6018866"></polygon>
                                <polygon id="Path" fill="url(#linearGradient-2)" points="47.6785367 29.2782351 52.3258396 29.2782351 52.3258396 31.6018866 47.6785367 31.6018866"></polygon>
                                <polygon id="Path" fill="url(#linearGradient-2)" points="47.6785367 38.572841 52.3258396 38.572841 52.3258396 40.8964924 47.6785367 40.8964924"></polygon>
                                <polygon id="Path" fill="url(#linearGradient-2)" points="33.7366279 38.572841 38.3839309 38.572841 38.3839309 40.8964924 33.7366279 40.8964924"></polygon>
                                <polygon id="Path" fill="url(#linearGradient-2)" points="33.7366279 47.8674468 38.3839309 47.8674468 38.3839309 50.1910982 33.7366279 50.1910982"></polygon>
                                <polygon id="Path" fill="url(#linearGradient-2)" points="47.6785367 47.8674468 52.3258396 47.8674468 52.3258396 50.1910982 47.6785367 50.1910982"></polygon>
                                <polygon id="Path" fill="url(#linearGradient-3)" points="46.5167109 62.9711812 48.8403624 62.9711812 48.8403624 65.2948327 46.5167109 65.2948327"></polygon>
                                <path d="M66.2677483,18.1245948 L34.8984537,0 L3.52915907,18.1245948 L3.52915907,46.705621 L5.85281052,46.705621 L5.85281052,19.5184454 L34.8984537,2.78826832 L63.9440968,19.5184454 L63.9440968,67.6184841 L52.3258396,67.6184841 C52.9067524,66.9212752 53.2550733,66.1077704 53.3713693,65.2948327 L58.1349682,65.2948327 C60.1097317,65.2948327 61.6204454,63.7841189 61.6204454,61.8093555 L61.6204454,56.0002268 C61.6204454,54.0248963 60.1097317,52.5147497 58.1349682,52.5147497 L58.1349682,28.1164094 C58.1349682,26.2573748 56.6242545,24.6309322 54.765787,24.6309322 L31.2966805,24.6309322 C29.4376459,24.6309322 27.9274993,26.2573748 27.9274993,28.1164094 L27.9274993,52.5147497 L25.6038479,52.5147497 L25.6038479,32.7637123 L23.2801964,32.7637123 L23.2801964,35.0873638 L17.7030927,35.0873638 C16.425538,35.0873638 15.2637123,35.7840055 14.6827995,36.9458312 L6.31742739,52.6304785 C5.96910651,53.0956625 5.85281052,53.6765754 5.85281052,54.2574883 L5.85281052,61.8093555 C5.85281052,63.7841189 7.36295712,65.2948327 9.3382877,65.2948327 L11.7782351,65.2948327 C12.01026,66.1077704 12.359148,66.9212752 12.8237649,67.6184841 L0.043681888,67.6184841 L0.043681888,69.9421356 L69.7532255,69.9421356 L69.7532255,67.6184841 L66.2677483,67.6184841 L66.2677483,18.1245948 Z M23.1639004,65.2948327 L41.985704,65.2948327 C42.2177289,66.1077704 42.5666169,66.9212752 43.0312338,67.6184841 L22.1183707,67.6184841 C22.5829876,66.9212752 22.9313084,66.1077704 23.1639004,65.2948327 Z M44.1930595,64.1330069 C44.1930595,62.1576763 45.7032061,60.6475298 47.6785367,60.6475298 C49.6533001,60.6475298 51.1640138,62.1576763 51.1640138,64.1330069 C51.1640138,66.1077704 49.6533001,67.6184841 47.6785367,67.6184841 C45.7032061,67.6184841 44.1930595,66.1077704 44.1930595,64.1330069 Z M44.1930595,52.5147497 L44.1930595,45.5437953 L55.8113167,45.5437953 L55.8113167,52.5147497 L44.1930595,52.5147497 Z M44.1930595,36.2491895 L55.8113167,36.2491895 L55.8113167,43.2201439 L44.1930595,43.2201439 L44.1930595,36.2491895 Z M41.869408,43.2201439 L30.2511508,43.2201439 L30.2511508,36.2491895 L41.869408,36.2491895 L41.869408,43.2201439 Z M55.8113167,28.1164094 L55.8113167,33.925538 L44.1930595,33.925538 L44.1930595,26.9545837 L54.765787,26.9545837 C55.3466999,26.9545837 55.8113167,27.5354966 55.8113167,28.1164094 Z M31.2966805,26.9545837 L41.869408,26.9545837 L41.869408,33.925538 L30.2511508,33.925538 L30.2511508,28.1164094 C30.2511508,27.5354966 30.7157676,26.9545837 31.2966805,26.9545837 Z M30.2511508,45.5437953 L41.869408,45.5437953 L41.869408,52.5147497 L30.2511508,52.5147497 L30.2511508,45.5437953 Z M16.6575629,37.9919281 C16.8901549,37.6430401 17.2384758,37.4110152 17.7030927,37.4110152 L23.2801964,37.4110152 L23.2801964,52.5147497 L8.98939971,52.5147497 L16.6575629,37.9919281 Z M8.17646197,61.8093555 L8.17646197,54.8384011 L58.1349682,54.8384011 C58.8321771,54.8384011 59.2967939,55.303018 59.2967939,56.0002268 L59.2967939,61.8093555 C59.2967939,62.5059972 58.8321771,62.9711812 58.1349682,62.9711812 L53.3713693,62.9711812 C52.6741604,59.8340249 49.6533001,57.7429654 46.5167109,58.4396072 C44.1930595,58.9047912 42.4503209,60.6475298 41.985704,62.9711812 L23.1639004,62.9711812 C22.4666916,59.8340249 19.4458312,57.7429654 16.3092421,58.4396072 C13.9855906,58.9047912 12.242852,60.6475298 11.7782351,62.9711812 L9.3382877,62.9711812 C8.64107884,62.9711812 8.17646197,62.5059972 8.17646197,61.8093555 Z M13.9855906,64.1330069 C13.9855906,62.1576763 15.4957372,60.6475298 17.4710678,60.6475298 C19.4458312,60.6475298 20.956545,62.1576763 20.956545,64.1330069 C20.956545,66.1077704 19.4458312,67.6184841 17.4710678,67.6184841 C15.4957372,67.6184841 13.9855906,66.1077704 13.9855906,64.1330069 Z" id="Shape" fill="url(#linearGradient-4)"></path>
                                <polygon id="Path" fill="url(#linearGradient-3)" points="16.3092421 62.9711812 18.6328935 62.9711812 18.6328935 65.2948327 16.3092421 65.2948327"></polygon>
                                <path d="M41.869408,11.1536404 L34.8984537,6.97095436 L27.9274993,11.1536404 L27.9274993,21.1454551 L41.869408,21.1454551 L41.869408,11.1536404 Z M30.2511508,12.547491 L33.7366279,10.4564315 L33.7366279,18.8218036 L30.2511508,18.8218036 L30.2511508,12.547491 Z M39.5457566,18.8218036 L36.0602794,18.8218036 L36.0602794,10.4564315 L39.5457566,12.547491 L39.5457566,18.8218036 Z" id="Shape" fill="url(#linearGradient-5)"></path>
                            </g>
                        </g>
                    </g>
                </g>
            </g>
        </g>
    </g>
</svg>