<?xml version="1.0" encoding="UTF-8"?>
<svg width="24px" height="24px" viewBox="0 0 24 24" version="1.1" xmlns="http://www.w3.org/2000/svg" xmlns:xlink="http://www.w3.org/1999/xlink">
    <!-- Generator: Sketch 60 (88103) - https://sketch.com -->
    <title>user-silhouette</title>
    <desc>Created with Sketch.</desc>
    <g id="Page-1" stroke="none" stroke-width="1" fill="none" fill-rule="evenodd">
        <g id="Главная-v1" transform="translate(-1035.000000, -2304.000000)" fill="#A3AEBC" fill-rule="nonzero">
            <g id="Форма-захвата" transform="translate(222.000000, 2138.000000)">
                <g id="Group-31" transform="translate(744.000000, 89.000000)">
                    <g id="Group-26" transform="translate(46.000000, 59.000000)">
                        <g id="user-silhouette-2" transform="translate(23.000000, 18.000000)">
                            <g id="user-silhouette">
                                <path d="M12.0048467,12.593927 C14.9633285,12.593927 17.361927,9.78662774 17.361927,6.32367883 C17.361927,1.52151825 14.9634453,0.0534890511 12.0048467,0.0534890511 C9.04613139,0.0534890511 6.64776642,1.52151825 6.64776642,6.32367883 C6.64776642,9.78662774 9.04618978,12.593927 12.0048467,12.593927 Z" id="Path"></path>
                                <path d="M23.8343942,21.8228905 L21.1316788,15.7345401 C21.0080584,15.4559416 20.7908905,15.2248759 20.5205839,15.084146 L16.3261314,12.9006715 C16.233635,12.8526131 16.121635,12.8619562 16.0384818,12.9249051 C14.852146,13.8221898 13.4572847,14.2964672 12.0048467,14.2964672 C10.5521752,14.2964672 9.15743066,13.8221898 7.97109489,12.9249051 C7.88770803,12.8619562 7.77570803,12.8526131 7.68321168,12.9006715 L3.48905109,15.084146 C3.21862774,15.2248759 3.00169343,15.4558248 2.8779562,15.7345401 L0.175240876,21.8228905 C-0.0110948905,22.2426277 0.0270948905,22.7228613 0.277430657,23.107854 C0.527649635,23.4927883 0.951124088,23.7225109 1.41027737,23.7225109 L22.5992409,23.7225109 C23.0583942,23.7225109 23.4819854,23.4926715 23.7322044,23.1077956 C23.9824234,22.7228613 24.0207299,22.2424526 23.8343942,21.8228905 Z" id="Path"></path>
                            </g>
                        </g>
                    </g>
                </g>
            </g>
        </g>
    </g>
</svg>