<?xml version="1.0" encoding="UTF-8"?>
<svg width="6px" height="10px" viewBox="0 0 6 10" version="1.1" xmlns="http://www.w3.org/2000/svg" xmlns:xlink="http://www.w3.org/1999/xlink">
    <!-- Generator: Sketch 60 (88103) - https://sketch.com -->
    <title>Path</title>
    <desc>Created with Sketch.</desc>
    <g id="Page-1" stroke="none" stroke-width="1" fill="none" fill-rule="evenodd">
        <g id="Выбор-узла" transform="translate(-396.000000, -334.000000)" fill="#E96300" fill-rule="nonzero">
            <g id="Group-15" transform="translate(222.000000, 332.000000)">
                <g id="Group-24">
                    <g id="angle-arrow-pointing-to-right-2" transform="translate(174.000000, 2.000000)">
                        <g id="angle-arrow-pointing-to-right">
                            <path d="M5.60631618,4.65420717 L1.04974804,0.0978445173 C0.984541191,0.0327061652 0.909505371,0 0.824811815,0 C0.740084011,0 0.665082438,0.0327061652 0.599909839,0.0978445173 L0.11109822,0.586758878 C0.0458228786,0.651931477 0.0133221971,0.726796061 0.0133221971,0.811660854 C0.0133221971,0.896525647 0.0458228786,0.97139023 0.11109822,1.03656283 L3.95378153,4.87924614 L0.11109822,8.72199794 C0.0458228786,8.78717054 0.0133221971,8.86217212 0.0133221971,8.94679718 C0.0133221971,9.03162772 0.0458228786,9.1066293 0.11109822,9.1718019 L0.599944086,9.66054502 C0.665116685,9.72578611 0.740118258,9.7582868 0.824846062,9.7582868 C0.909539618,9.7582868 0.984541191,9.72571762 1.04974804,9.66054502 L5.60607645,5.10414812 C5.6712148,5.03900976 5.70381822,4.96397394 5.70381822,4.87924614 C5.70381822,4.79451834 5.67145453,4.71951676 5.60631618,4.65420717 Z" id="Path"></path>
                        </g>
                    </g>
                </g>
            </g>
        </g>
    </g>
</svg>