<?xml version="1.0" encoding="UTF-8"?>
<svg width="24px" height="24px" viewBox="0 0 24 24" version="1.1" xmlns="http://www.w3.org/2000/svg" xmlns:xlink="http://www.w3.org/1999/xlink">
    <!-- Generator: Sketch 60 (88103) - https://sketch.com -->
    <title>phone</title>
    <desc>Created with Sketch.</desc>
    <g id="Page-1" stroke="none" stroke-width="1" fill="none" fill-rule="evenodd">
        <g id="Главная-v1" transform="translate(-1035.000000, -2400.000000)" fill="#A3AEBC" fill-rule="nonzero">
            <g id="Форма-захвата" transform="translate(222.000000, 2138.000000)">
                <g id="Group-31" transform="translate(744.000000, 89.000000)">
                    <g id="Group-26" transform="translate(46.000000, 155.000000)">
                        <g id="phone-2" transform="translate(23.000000, 18.000000)">
                            <g id="phone">
                                <path d="M22.0169143,15.75325 C20.5513558,15.75325 19.1123532,15.5234375 17.7487169,15.071625 C17.0805195,14.843125 16.2590961,15.05275 15.8512831,15.4726875 L13.1597299,17.5098125 C10.0382961,15.83925 8.11555325,13.912125 6.47208312,10.8060625 L8.44413506,8.1778125 C8.95648831,7.6648125 9.14025974,6.9154375 8.92008312,6.2123125 C8.46751169,4.8379375 8.23761039,3.395875 8.23761039,1.925875 C8.23767273,0.8639375 7.37597922,0 6.31686234,0 L1.92081039,0 C0.861693506,0 0,0.8639375 0,1.9258125 C0,14.0976875 9.87665455,24 22.0169143,24 C23.0760312,24 23.9377247,23.1360625 23.9377247,22.0741875 L23.9377247,17.679 C23.9377247,16.6171875 23.0759688,15.75325 22.0169143,15.75325 Z" id="Path"></path>
                            </g>
                        </g>
                    </g>
                </g>
            </g>
        </g>
    </g>
</svg>