<?xml version="1.0" encoding="UTF-8"?>
<svg width="21px" height="16px" viewBox="0 0 21 16" version="1.1" xmlns="http://www.w3.org/2000/svg" xmlns:xlink="http://www.w3.org/1999/xlink">
    <!-- Generator: Sketch 60 (88103) - https://sketch.com -->
    <title>list 2</title>
    <desc>Created with Sketch.</desc>
    <g id="Page-1" stroke="none" stroke-width="1" fill="none" fill-rule="evenodd">
        <g id="Главная-v1" transform="translate(-464.000000, -173.000000)" fill="#FFFFFF" fill-rule="nonzero">
            <g id="Шапка">
                <g id="Group-4" transform="translate(222.000000, 29.000000)">
                    <g id="Group">
                        <g id="Group-9" transform="translate(0.000000, 102.000000)">
                            <g id="Group-10" transform="translate(32.000000, 24.000000)">
                                <g id="list-2" transform="translate(210.000000, 18.000000)">
                                    <g id="list">
                                        <path d="M19.8692174,15.6149565 L5.88521739,15.6149565 C5.30886957,15.6149565 4.84173913,15.1478261 4.84173913,14.5714783 C4.84173913,13.9951304 5.30886957,13.528 5.88521739,13.528 L19.8688696,13.528 C20.4452174,13.528 20.9123478,13.9951304 20.9123478,14.5714783 C20.9123478,15.1478261 20.4455652,15.6149565 19.8692174,15.6149565 Z" id="Path"></path>
                                        <path d="M19.8692174,9.06504348 L5.88521739,9.06504348 C5.30886957,9.06504348 4.84173913,8.59791304 4.84173913,8.02156522 C4.84173913,7.44521739 5.30886957,6.97808696 5.88521739,6.97808696 L19.8688696,6.97808696 C20.4452174,6.97808696 20.912348,7.44521739 20.912348,8.02156522 C20.9126957,8.59791304 20.4455652,9.06504348 19.8692174,9.06504348 Z" id="Path"></path>
                                        <path d="M19.8692174,2.51513043 L5.88521739,2.51513043 C5.30886957,2.51513043 4.84173913,2.048 4.84173913,1.47165217 C4.84173913,0.895304348 5.30886957,0.428173913 5.88521739,0.428173913 L19.8688696,0.428173913 C20.4452174,0.428173913 20.9123478,0.895304348 20.9123478,1.47165217 C20.9123478,2.048 20.4455652,2.51513043 19.8692174,2.51513043 Z" id="Path"></path>
                                        <circle id="Oval" cx="1.4013913" cy="1.55234783" r="1.4013913"></circle>
                                        <circle id="Oval" cx="1.4013913" cy="8.02156522" r="1.4013913"></circle>
                                        <circle id="Oval" cx="1.4013913" cy="14.4907826" r="1.4013913"></circle>
                                    </g>
                                </g>
                            </g>
                        </g>
                    </g>
                </g>
            </g>
        </g>
    </g>
</svg>