<?xml version="1.0" encoding="UTF-8"?>
<svg width="20px" height="21px" viewBox="0 0 20 21" version="1.1" xmlns="http://www.w3.org/2000/svg" xmlns:xlink="http://www.w3.org/1999/xlink">
    <!-- Generator: Sketch 60 (88103) - https://sketch.com -->
    <title>Shape</title>
    <desc>Created with Sketch.</desc>
    <g id="Page-1" stroke="none" stroke-width="1" fill="none" fill-rule="evenodd">
        <g id="Список-запчастей" transform="translate(-748.000000, -462.000000)" fill="#A3AEBC" fill-rule="nonzero">
            <g id="Group-5" transform="translate(222.000000, 448.000000)">
                <g id="Group-26">
                    <g id="search-(5)" transform="translate(526.000000, 14.000000)">
                        <path d="M19.695,18.5310714 L14.8528571,13.495 C16.0978571,12.015 16.78,10.1528571 16.78,8.21428571 C16.78,3.685 13.095,0 8.56571429,0 C4.03642857,0 0.351428571,3.685 0.351428571,8.21428571 C0.351428571,12.7435714 4.03642857,16.4285714 8.56571429,16.4285714 C10.2660714,16.4285714 11.8864286,15.9157143 13.2717857,14.9421429 L18.1507143,20.0164286 C18.3546429,20.2282143 18.6289286,20.345 18.9228571,20.345 C19.2010714,20.345 19.465,20.2389286 19.6653571,20.0460714 C20.0910714,19.6364286 20.1046429,18.9571429 19.695,18.5310714 Z M8.56571429,2.14285714 C11.9135714,2.14285714 14.6371429,4.86642857 14.6371429,8.21428571 C14.6371429,11.5621429 11.9135714,14.2857143 8.56571429,14.2857143 C5.21785714,14.2857143 2.49428571,11.5621429 2.49428571,8.21428571 C2.49428571,4.86642857 5.21785714,2.14285714 8.56571429,2.14285714 Z" id="Shape"></path>
                    </g>
                </g>
            </g>
        </g>
    </g>
</svg>