<?xml version="1.0" encoding="UTF-8"?>
<svg width="23px" height="20px" viewBox="0 0 23 20" version="1.1" xmlns="http://www.w3.org/2000/svg" xmlns:xlink="http://www.w3.org/1999/xlink">
    <!-- Generator: Sketch 60 (88103) - https://sketch.com -->
    <title>list</title>
    <desc>Created with Sketch.</desc>
    <g id="Mobile-375" stroke="none" stroke-width="1" fill="none" fill-rule="evenodd">
        <g id="Главная-v1" transform="translate(-322.000000, -41.000000)" fill="#FFFFFF" fill-rule="nonzero">
            <g id="list-2" transform="translate(321.000000, 41.000000)">
                <g id="list">
                    <path d="M22.3242612,19.7331625 L2.53957188,19.7331625 C1.72414978,19.7331625 1.06324943,19.143103 1.06324943,18.4150847 C1.06324943,17.6870664 1.72414978,17.0970069 2.53957188,17.0970069 L22.3237691,17.0970069 C23.1391912,17.0970069 23.8000915,17.6870664 23.8000915,18.4150847 C23.8000915,19.143103 23.1396833,19.7331625 22.3242612,19.7331625 Z" id="Path"></path>
                    <path d="M22.3242609,11.4550847 L2.53957186,11.4550847 C1.72414977,11.4550847 1.06324943,10.8650252 1.06324943,10.1370069 C1.06324943,9.40898856 1.72414977,8.81892906 2.53957186,8.81892906 L22.3237688,8.81892906 C23.1391909,8.81892906 23.8000915,9.40898856 23.8000915,10.1370069 C23.8005834,10.8650252 23.139683,11.4550847 22.3242609,11.4550847 Z" id="Path"></path>
                    <path d="M22.3242612,3.17700686 L2.53957188,3.17700686 C1.72414978,3.17700686 1.06324943,2.58694737 1.06324943,1.85892906 C1.06324943,1.13091076 1.72414978,0.540851259 2.53957188,0.540851259 L22.3237691,0.540851259 C23.1391912,0.540851259 23.8000915,1.13091076 23.8000915,1.85892906 C23.8000915,2.58694737 23.1396833,3.17700686 22.3242612,3.17700686 Z" id="Path"></path>
                </g>
            </g>
        </g>
    </g>
</svg>