<?xml version="1.0" encoding="UTF-8"?>
<svg width="206px" height="33px" viewBox="0 0 206 33" version="1.1" xmlns="http://www.w3.org/2000/svg" xmlns:xlink="http://www.w3.org/1999/xlink">
    <!-- Generator: Sketch 60 (88103) - https://sketch.com -->
    <title>Group 14</title>
    <desc>Created with Sketch.</desc>
    <defs>
        <linearGradient x1="50%" y1="0.174096505%" x2="50%" y2="100%" id="linearGradient-1">
            <stop stop-color="#F38600" offset="0.0580658784%"></stop>
            <stop stop-color="#E45200" offset="100%"></stop>
        </linearGradient>
    </defs>
    <g id="Page-1" stroke="none" stroke-width="1" fill="none" fill-rule="evenodd">
        <g id="Главная-v1" transform="translate(-222.000000, -49.000000)">
            <g id="Шапка">
                <g id="Group-14" transform="translate(222.000000, 49.000000)">
                    <g id="Group">
                        <g id="ТехПартнер" transform="translate(0.061128, 0.000000)" fill-rule="nonzero">
                            <path d="M13.3869436,25.6666667 L13.3869436,7.11333333 L19.4385757,7.11333333 L19.4385757,0 L-3.69482223e-13,0 L-3.69482223e-13,7.11333333 L6.05163205,7.11333333 L6.05163205,25.6666667 L13.3869436,25.6666667 Z M27.9108605,26.18 C30.8816617,26.18 33.7791098,25.2633333 35.6862908,23.21 L31.2484273,19.47 C30.1848071,20.35 29.2678932,20.6433333 28.1309199,20.6433333 C26.6638576,20.6433333 25.1234421,20.35 24.389911,18.81 L36.5665282,18.81 C36.7865875,17.93 36.8599407,17.1966667 36.8599407,16.4266667 C36.8599407,10.9633333 32.8988724,6.82 27.2873591,6.82 C21.6391691,6.82 17.5313947,11.0366667 17.5313947,16.5733333 C17.5313947,21.9633333 21.4924629,26.18 27.9108605,26.18 Z M30.441543,14.4466667 L24.2798813,14.4466667 C24.8300297,12.9433333 26.0770326,12.2466667 27.4707418,12.2466667 C28.7910979,12.2466667 29.9647478,12.7966667 30.441543,14.4466667 Z M44.0118694,25.6666667 L46.9459941,21.56 L49.8801187,25.6666667 L57.3988131,25.6666667 L50.7236795,16.28 L57.1054006,7.33333333 L49.5867062,7.33333333 L46.9459941,11.0366667 L44.3052819,7.33333333 L36.7865875,7.33333333 L43.2049852,16.28 L36.4931751,25.6666667 L44.0118694,25.6666667 Z" id="Тех" fill="url(#linearGradient-1)"></path>
                            <path d="M66.5679525,25.6666667 L66.5679525,7.11333333 L72.0694362,7.11333333 L72.0694362,25.6666667 L79.4047478,25.6666667 L79.4047478,0 L59.2326409,0 L59.2326409,25.6666667 L66.5679525,25.6666667 Z M90.2976855,26.18 C92.4982789,26.18 94.1120475,25.3733333 95.2123442,24.0166667 L95.2123442,25.6666667 L101.997507,25.6666667 L101.997507,7.33333333 L95.2123442,7.33333333 L95.2123442,8.98333333 C94.1120475,7.62666667 92.4982789,6.82 90.2976855,6.82 C85.3096736,6.82 81.8987537,10.9633333 81.8987537,16.5 C81.8987537,22.0366667 85.3096736,26.18 90.2976855,26.18 Z M91.9481306,19.9466667 C89.9675964,19.9466667 88.6839169,18.4433333 88.6839169,16.5 C88.6839169,14.5566667 89.9675964,13.0533333 91.9481306,13.0533333 C93.9286647,13.0533333 95.2123442,14.5566667 95.2123442,16.5 C95.2123442,18.4433333 93.9286647,19.9466667 91.9481306,19.9466667 Z M111.716795,33 L111.716795,24.0166667 C112.817092,25.3733333 114.430861,26.18 116.631454,26.18 C121.619466,26.18 125.030386,22.0366667 125.030386,16.5 C125.030386,10.9633333 121.619466,6.82 116.631454,6.82 C114.430861,6.82 112.817092,7.62666667 111.716795,8.98333333 L111.716795,7.33333333 L104.931632,7.33333333 L104.931632,33 L111.716795,33 Z M114.981009,19.9466667 C113.000475,19.9466667 111.716795,18.4433333 111.716795,16.5 C111.716795,14.5566667 113.000475,13.0533333 114.981009,13.0533333 C116.961543,13.0533333 118.245223,14.5566667 118.245223,16.5 C118.245223,18.4433333 116.961543,19.9466667 114.981009,19.9466667 Z M137.390386,25.6666667 L137.390386,13.7866667 L142.378398,13.7866667 L142.378398,7.33333333 L125.507181,7.33333333 L125.507181,13.7866667 L130.568546,13.7866667 L130.568546,25.6666667 L137.390386,25.6666667 Z M150.814006,25.6666667 L150.814006,19.7266667 L155.215193,19.7266667 L155.215193,25.6666667 L162.000356,25.6666667 L162.000356,7.33333333 L155.215193,7.33333333 L155.215193,13.2733333 L150.814006,13.2733333 L150.814006,7.33333333 L144.028843,7.33333333 L144.028843,25.6666667 L150.814006,25.6666667 Z M174.433709,26.18 C177.40451,26.18 180.301958,25.2633333 182.209139,23.21 L177.771276,19.47 C176.707656,20.35 175.790742,20.6433333 174.653769,20.6433333 C173.186706,20.6433333 171.646291,20.35 170.91276,18.81 L183.089377,18.81 C183.309436,17.93 183.382789,17.1966667 183.382789,16.4266667 C183.382789,10.9633333 179.421721,6.82 173.810208,6.82 C168.162018,6.82 164.054243,11.0366667 164.054243,16.5733333 C164.054243,21.9633333 168.015312,26.18 174.433709,26.18 Z M176.964392,14.4466667 L170.80273,14.4466667 C171.352878,12.9433333 172.599881,12.2466667 173.993591,12.2466667 C175.313947,12.2466667 176.487596,12.7966667 176.964392,14.4466667 Z M192.185163,33 L192.185163,24.0166667 C193.28546,25.3733333 194.899228,26.18 197.099822,26.18 C202.087834,26.18 205.498754,22.0366667 205.498754,16.5 C205.498754,10.9633333 202.087834,6.82 197.099822,6.82 C194.899228,6.82 193.28546,7.62666667 192.185163,8.98333333 L192.185163,7.33333333 L185.4,7.33333333 L185.4,33 L192.185163,33 Z M195.449377,19.9466667 C193.468843,19.9466667 192.185163,18.4433333 192.185163,16.5 C192.185163,14.5566667 193.468843,13.0533333 195.449377,13.0533333 C197.429911,13.0533333 198.713591,14.5566667 198.713591,16.5 C198.713591,18.4433333 197.429911,19.9466667 195.449377,19.9466667 Z" id="Партнер" fill="#FFFFFF"></path>
                        </g>
                        <rect id="Rectangle" fill="#E96300" x="6.11275964" y="28.1111111" width="95.9703264" height="4.88888889"></rect>
                        <rect id="Rectangle" fill="#E96300" x="114.614243" y="28.1111111" width="67.851632" height="4.88888889"></rect>
                    </g>
                </g>
            </g>
        </g>
    </g>
</svg>