<?xml version="1.0" encoding="UTF-8"?>
<svg width="60px" height="60px" viewBox="0 0 60 60" version="1.1" xmlns="http://www.w3.org/2000/svg" xmlns:xlink="http://www.w3.org/1999/xlink">
    <!-- Generator: Sketch 60 (88103) - https://sketch.com -->
    <title>save-money</title>
    <desc>Created with Sketch.</desc>
    <defs>
        <linearGradient x1="50%" y1="-25.4938957%" x2="50%" y2="100%" id="linearGradient-1">
            <stop stop-color="#F69C00" offset="0%"></stop>
            <stop stop-color="#E96300" offset="100%"></stop>
        </linearGradient>
        <linearGradient x1="50%" y1="-25.4938957%" x2="50%" y2="100%" id="linearGradient-2">
            <stop stop-color="#F69C00" offset="0%"></stop>
            <stop stop-color="#E96300" offset="100%"></stop>
        </linearGradient>
        <linearGradient x1="50%" y1="-25.4938957%" x2="50%" y2="100%" id="linearGradient-3">
            <stop stop-color="#F69C00" offset="0%"></stop>
            <stop stop-color="#E96300" offset="100%"></stop>
        </linearGradient>
        <linearGradient x1="50%" y1="-25.4938957%" x2="50%" y2="100%" id="linearGradient-4">
            <stop stop-color="#F69C00" offset="0%"></stop>
            <stop stop-color="#E96300" offset="100%"></stop>
        </linearGradient>
        <linearGradient x1="50%" y1="-25.4938957%" x2="50%" y2="100%" id="linearGradient-5">
            <stop stop-color="#F69C00" offset="0%"></stop>
            <stop stop-color="#E96300" offset="100%"></stop>
        </linearGradient>
        <linearGradient x1="50%" y1="-25.4938957%" x2="50%" y2="100%" id="linearGradient-6">
            <stop stop-color="#F69C00" offset="0%"></stop>
            <stop stop-color="#E96300" offset="100%"></stop>
        </linearGradient>
        <linearGradient x1="50%" y1="-25.4938957%" x2="50%" y2="100%" id="linearGradient-7">
            <stop stop-color="#F69C00" offset="0%"></stop>
            <stop stop-color="#E96300" offset="100%"></stop>
        </linearGradient>
    </defs>
    <g id="Page-1" stroke="none" stroke-width="1" fill="none" fill-rule="evenodd">
        <g id="Товар-детально" transform="translate(-1060.000000, -927.000000)" fill-rule="nonzero">
            <g id="Group-32" transform="translate(713.000000, 464.000000)">
                <g id="Group-31" transform="translate(0.000000, 463.000000)">
                    <g id="save-money-2" transform="translate(347.000000, 0.000000)">
                        <g id="save-money">
                            <path d="M56.8992982,29.9212865 L54.1824561,29.5810526 C53.3564912,27.5602339 52.1698246,25.6909942 50.6949708,24.0736842 L52.6925146,15.6112281 C52.7746199,15.2633918 52.6932164,14.897193 52.471462,14.6169591 C52.2497076,14.3367251 51.9120468,14.1728655 51.5547368,14.1728655 L51.2991813,14.1728655 C51.2976608,14.1728655 51.2966082,14.1728655 51.2950877,14.1728655 C47.9791813,14.1728655 44.9907602,16.2591813 43.8153216,19.3192982 C42.9839766,18.9888889 42.1293567,18.7167251 41.2577778,18.5105263 C40.6291228,18.3618713 39.9990643,18.7507602 39.8504094,19.3795322 C39.7017544,20.0081871 40.0907602,20.6382456 40.7194152,20.7869006 C43.6966082,21.4911111 46.3523977,22.9966082 48.445731,25.085848 C48.5222222,25.1978947 48.6175439,25.297076 48.7295906,25.3773099 C50.2555556,26.9789474 51.4617544,28.9005848 52.2442105,31.0540351 C52.3940351,31.4666667 52.7625731,31.7607018 53.1981287,31.8152047 L56.6088889,32.2422222 C57.1421053,32.3090058 57.5440936,32.7645614 57.5440936,33.3018713 L57.5440936,39.1985965 C57.5440936,39.7359064 57.1419883,40.191462 56.6088889,40.2582456 L53.4483041,40.6539181 C52.9936842,40.7107602 52.614152,41.0278363 52.4773099,41.4651462 C51.5396491,44.4610526 49.7581287,47.1102924 47.3250292,49.1261988 C47.0568421,49.3484211 46.9016374,49.6785965 46.9016374,50.0267836 L46.9016374,56.4915789 C46.9016374,57.0718129 46.4295906,57.5438596 45.8494737,57.5438596 L39.0650292,57.5438596 C38.4847953,57.5438596 38.0127485,57.0718129 38.0127485,56.4915789 L38.0127485,54.0277193 C38.0127485,53.3817544 37.4890058,52.8581287 36.8431579,52.8581287 L27.0169591,52.8581287 C26.3711111,52.8581287 25.8473684,53.3817544 25.8473684,54.0277193 L25.8473684,56.4915789 C25.8473684,57.0718129 25.3753216,57.5438596 24.7950877,57.5438596 L18.0105263,57.5438596 C17.4304094,57.5438596 16.9583626,57.0718129 16.9583626,56.4915789 L16.9583626,51.9267836 C16.9583626,51.4978947 16.7236257,51.1035088 16.3467836,50.8989474 C11.0974269,48.0488889 7.83625731,42.5715789 7.83625731,36.6045614 C7.83625731,27.6422222 15.1276023,20.3508772 24.0899415,20.3508772 L25.5555556,20.3508772 C26.2014035,20.3508772 26.7251462,19.8272515 26.7251462,19.1812865 C26.7251462,18.5353216 26.2014035,18.0116959 25.5555556,18.0116959 L24.0899415,18.0116959 C15.4078363,18.0116959 8.09730994,23.9938012 6.06163743,32.0526316 L5.20467836,32.0526316 C3.6245614,32.0526316 2.33918129,30.7671345 2.33918129,29.1871345 C2.33918129,27.6071345 3.6245614,26.3216374 5.20467836,26.3216374 C5.85052632,26.3216374 6.37426901,25.7980117 6.37426901,25.1520468 C6.37426901,24.5060819 5.85052632,23.9824561 5.20467836,23.9824561 C2.3348538,23.9824561 0,26.317193 0,29.1871345 C0,32.057076 2.3348538,34.3918129 5.20467836,34.3918129 L5.62935673,34.3918129 C5.54280702,35.1176608 5.49707602,35.8557895 5.49707602,36.6045614 C5.49707602,43.1950877 8.97473684,49.2632749 14.6190643,52.6077193 L14.6190643,56.4916959 C14.6190643,58.3617544 16.1404678,59.8831579 18.0104094,59.8831579 L24.7948538,59.8831579 C26.6649123,59.8831579 28.1863158,58.3617544 28.1863158,56.4916959 L28.1863158,55.1974269 L35.6733333,55.1974269 L35.6733333,56.4916959 C35.6733333,58.3617544 37.1947368,59.8831579 39.0647953,59.8831579 L45.8492398,59.8831579 C47.7191813,59.8831579 49.2405848,58.3617544 49.2405848,56.4916959 L49.2405848,50.5660819 C51.6153216,48.4775439 53.4073684,45.8430409 54.4679532,42.8837427 L56.8991813,42.5792982 C58.6002339,42.3664327 59.8830409,40.9129825 59.8830409,39.1985965 L59.8830409,33.3018713 C59.8830409,31.5876023 58.6003509,30.134152 56.8992982,29.9212865 Z M48.7307602,22.2125146 C47.8582456,21.4988304 46.9237427,20.8665497 45.9408187,20.3236257 C46.5870175,18.4669006 48.1631579,17.0853801 50.042807,16.6540351 L48.7307602,22.2125146 Z" id="Shape" fill="url(#linearGradient-1)"></path>
                            <path d="M46.5578947,29.6994152 C46.3404678,29.4818713 46.0387135,29.3567251 45.7311111,29.3567251 C45.4235088,29.3567251 45.1217544,29.4818713 44.9042105,29.6994152 C44.6866667,29.9169591 44.5615205,30.2187135 44.5615205,30.5263158 C44.5615205,30.8339181 44.6865497,31.1356725 44.9042105,31.3532164 C45.1218713,31.5707602 45.4235088,31.6959064 45.7311111,31.6959064 C46.0387135,31.6959064 46.3404678,31.5707602 46.5578947,31.3532164 C46.7754386,31.1356725 46.9007018,30.8339181 46.9007018,30.5263158 C46.9007018,30.2187135 46.7754386,29.9169591 46.5578947,29.6994152 Z" id="Path" fill="url(#linearGradient-2)"></path>
                            <path d="M34.2973099,6.8225731 C33.651462,6.8225731 33.1277193,7.34619883 33.1277193,7.99216374 L33.1277193,12.631345 C33.1277193,13.2773099 33.651462,13.8009357 34.2973099,13.8009357 C34.9431579,13.8009357 35.4669006,13.2773099 35.4669006,12.631345 L35.4669006,7.99216374 C35.4669006,7.34631579 34.9432749,6.8225731 34.2973099,6.8225731 Z" id="Path" fill="url(#linearGradient-3)"></path>
                            <path d="M35.1239766,2.92163743 C34.9065497,2.70409357 34.6047953,2.57894737 34.297193,2.57894737 C33.9894737,2.57894737 33.6878363,2.70409357 33.4702924,2.92163743 C33.2527485,3.13918129 33.1276023,3.44093567 33.1276023,3.74853801 C33.1276023,4.05730994 33.2526316,4.35789474 33.4702924,4.5754386 C33.6878363,4.79298246 33.9894737,4.91812865 34.297193,4.91812865 C34.6047953,4.91812865 34.9065497,4.79298246 35.1239766,4.5754386 C35.3415205,4.35789474 35.4667836,4.05614035 35.4667836,3.74853801 C35.4667836,3.44093567 35.3415205,3.14035088 35.1239766,2.92163743 Z" id="Path" fill="url(#linearGradient-2)"></path>
                            <path d="M24.7953216,0 C24.1494737,0 23.625731,0.523625731 23.625731,1.16959064 L23.625731,3.15789474 C23.625731,3.80385965 24.1494737,4.32748538 24.7953216,4.32748538 C25.4411696,4.32748538 25.9649123,3.80385965 25.9649123,3.15789474 L25.9649123,1.16959064 C25.9649123,0.523625731 25.4412865,0 24.7953216,0 Z" id="Path" fill="url(#linearGradient-4)"></path>
                            <path d="M13.3260819,36.6045614 C13.3260819,35.9585965 12.8023392,35.4349708 12.1564912,35.4349708 C11.5106433,35.4349708 10.9869006,35.9585965 10.9869006,36.6045614 L10.9870175,36.6666667 C10.9909942,37.3100585 11.5139181,37.8290058 12.1564912,37.8290058 C12.1588304,37.8290058 12.1612865,37.8290058 12.1638596,37.8290058 C12.8097076,37.8249123 13.3301754,37.2980117 13.3262215,36.6520468 L13.3260819,36.6045614 Z" id="Path" fill="url(#linearGradient-5)"></path>
                            <path d="M18.5032749,45.8071345 C16.4701754,44.5698246 14.8831579,42.6688889 14.0347368,40.4545029 C13.8035088,39.8511111 13.1271345,39.5494737 12.5240936,39.7808187 C11.9209357,40.0119298 11.6192982,40.6881871 11.8504094,41.291462 C12.8831579,43.9870175 14.8140351,46.3003509 17.2873684,47.8053801 C17.4773099,47.9209357 17.6870175,47.9760234 17.894152,47.9760234 C18.2888889,47.9760234 18.674269,47.7761404 18.8945029,47.414269 C19.2302924,46.8624561 19.0549708,46.142924 18.5032749,45.8071345 Z" id="Path" fill="url(#linearGradient-6)"></path>
                            <path d="M24.7953216,5.62011696 C22.0866667,5.62011696 19.8830409,7.82374269 19.8830409,10.5323977 C19.8830409,13.2410526 22.0866667,15.4446784 24.7953216,15.4446784 C27.5039766,15.4446784 29.7076023,13.2410526 29.7076023,10.5323977 C29.7076023,7.82374269 27.5039766,5.62011696 24.7953216,5.62011696 Z M24.7953216,13.1054971 C23.3764912,13.1054971 22.2222222,11.9512281 22.2222222,10.5323977 C22.2222222,9.11356725 23.3764912,7.95929825 24.7953216,7.95929825 C26.214152,7.95929825 27.3684211,9.11356725 27.3684211,10.5323977 C27.3684211,11.9512281 26.214152,13.1054971 24.7953216,13.1054971 Z" id="Shape" fill="url(#linearGradient-2)"></path>
                            <path d="M39.5321637,24.7953216 L38.4795322,24.7953216 C38.9419883,24.0464327 39.2095906,23.1651462 39.2095906,22.2222222 C39.2095906,19.5135673 37.0059649,17.3099415 34.2973099,17.3099415 C31.588655,17.3099415 29.3850292,19.5135673 29.3850292,22.2222222 C29.3849123,23.1651462 29.6525146,24.0464327 30.1149708,24.7953216 L24.3274854,24.7953216 C23.6816374,24.7953216 23.1578947,25.3189474 23.1578947,25.9649123 C23.1578947,26.6108772 23.6816374,27.1345029 24.3274854,27.1345029 L39.5321637,27.1345029 C40.1780117,27.1345029 40.7017544,26.6108772 40.7017544,25.9649123 C40.7017544,25.3189474 40.1781287,24.7953216 39.5321637,24.7953216 Z M34.2973099,24.7953216 C32.8784795,24.7953216 31.7242105,23.6410526 31.7242105,22.2222222 C31.7242105,20.8033918 32.8784795,19.6491228 34.2973099,19.6491228 C35.7161404,19.6491228 36.8704094,20.8033918 36.8704094,22.2222222 C36.8704094,23.6410526 35.7160234,24.7953216 34.2973099,24.7953216 Z" id="Shape" fill="url(#linearGradient-7)"></path>
                        </g>
                    </g>
                </g>
            </g>
        </g>
    </g>
</svg>