<?xml version="1.0" encoding="UTF-8"?>
<svg width="45px" height="60px" viewBox="0 0 45 60" version="1.1" xmlns="http://www.w3.org/2000/svg" xmlns:xlink="http://www.w3.org/1999/xlink">
    <!-- Generator: Sketch 60 (88103) - https://sketch.com -->
    <title>shield (1)</title>
    <desc>Created with Sketch.</desc>
    <defs>
        <linearGradient x1="50%" y1="0.174096505%" x2="50%" y2="100%" id="linearGradient-1">
            <stop stop-color="#F38600" offset="0.0580658784%"></stop>
            <stop stop-color="#E45200" offset="100%"></stop>
        </linearGradient>
        <linearGradient x1="50%" y1="0.11609804%" x2="50%" y2="100%" id="linearGradient-2">
            <stop stop-color="#F38600" offset="0.0580658784%"></stop>
            <stop stop-color="#E45200" offset="100%"></stop>
        </linearGradient>
        <linearGradient x1="50%" y1="0.11609804%" x2="50%" y2="100%" id="linearGradient-3">
            <stop stop-color="#F38600" offset="0.0580658784%"></stop>
            <stop stop-color="#E45200" offset="100%"></stop>
        </linearGradient>
        <linearGradient x1="50%" y1="0.11609804%" x2="50%" y2="100%" id="linearGradient-4">
            <stop stop-color="#F38600" offset="0.0580658784%"></stop>
            <stop stop-color="#E45200" offset="100%"></stop>
        </linearGradient>
    </defs>
    <g id="Page-1" stroke="none" stroke-width="1" fill="none" fill-rule="evenodd">
        <g id="Товар-детально" transform="translate(-717.000000, -927.000000)" fill-rule="nonzero">
            <g id="Group-32" transform="translate(713.000000, 464.000000)">
                <g id="Group-31" transform="translate(0.000000, 463.000000)">
                    <g id="Group-29" transform="translate(4.000000, 0.000000)">
                        <g id="shield-(1)-2">
                            <g id="shield-(1)">
                                <path d="M7.08984375,24.2578125 C7.08984375,24.9050904 6.56524664,25.4296875 5.91796875,25.4296875 C5.27069086,25.4296875 4.74609375,24.9050904 4.74609375,24.2578125 C4.74609375,23.6105346 5.27069086,23.0859375 5.91796875,23.0859375 C6.56524664,23.0859375 7.08984375,23.6105346 7.08984375,24.2578125 Z" id="Path" fill="url(#linearGradient-1)"></path>
                                <path d="M21.6741943,59.8031616 C21.8710327,59.934082 22.0976257,60 22.3242187,60 C22.5508118,60 22.7774048,59.934082 22.9742432,59.8031616 L33.6314392,52.6977539 C40.4933167,48.1237793 44.5898438,40.4690552 44.5898438,32.2215271 L44.5898438,8.23562625 C44.5898438,7.73208621 44.2675781,7.28439328 43.7901306,7.12463379 L22.6963806,0.0604248047 C22.4546814,-0.0201416016 22.1932983,-0.0201416016 21.9520569,0.0604248047 L0.858306914,7.12463379 C0.380401641,7.28439328 0.05859375,7.73208621 0.05859375,8.23562625 L0.05859375,32.2215271 C0.05859375,40.4690552 4.15512082,48.1237793 11.0169983,52.6977539 L21.6741943,59.8031616 Z M2.40234375,32.2215271 L2.40234375,9.07928461 L22.3242187,2.40737918 L42.2460938,9.07928461 L42.2460938,32.2215271 C42.2460938,39.6835327 38.5395813,46.6090393 32.3313904,50.7476807 L22.3242188,57.4195862 L12.3170471,50.7476807 C6.10885617,46.6094971 2.40234375,39.6835327 2.40234375,32.2215271 Z" id="Shape" fill="url(#linearGradient-2)"></path>
                                <path d="M21.6741943,54.1699219 C21.8710327,54.3008423 22.0976257,54.3667603 22.3242188,54.3667603 C22.5508118,54.3667603 22.7774048,54.3008423 22.9742432,54.1699219 L31.0308838,48.7980652 C36.585846,45.0952148 39.9023438,38.8989258 39.9023438,32.2229004 L39.9023438,11.6143799 C39.9023438,11.1108398 39.5805359,10.663147 39.1030884,10.5033874 L22.6968384,5.00244141 C22.4551392,4.92141727 22.1932983,4.92141727 21.9515991,5.00244141 L5.54534906,10.5033874 C5.06790164,10.663147 4.74609375,11.1108398 4.74609375,11.6143799 L4.74609375,19.5703125 C4.74609375,20.2171325 5.27069086,20.7421875 5.91796875,20.7421875 C6.56478879,20.7421875 7.08984375,20.2171325 7.08984375,19.5703125 L7.08984375,12.4575806 L22.3242188,7.34939578 L37.5585938,12.4575806 L37.5585938,32.2229004 C37.5585938,38.1138611 34.6321106,43.5809326 29.730835,46.8479919 L22.3242188,51.7863464 L14.9176025,46.8475342 C10.0158691,43.5809326 7.08984375,38.1134033 7.08984375,32.2229004 L7.08984375,28.9453125 C7.08984375,28.2980346 6.56478879,27.7734375 5.91796875,27.7734375 C5.27069086,27.7734375 4.74609375,28.2980346 4.74609375,28.9453125 L4.74609375,32.2229004 C4.74609375,38.8993835 8.06259152,45.0956726 13.6175537,48.7980652 L21.6741943,54.1699219 Z" id="Path" fill="url(#linearGradient-3)"></path>
                                <path d="M17.494812,38.4617614 C18.1585693,39.1259766 19.0415954,39.4917298 19.9804688,39.4917298 C20.9193421,39.4917298 21.8019104,39.1259766 22.4661255,38.4617614 L31.8411255,29.0867614 C33.2148743,27.7130127 33.215332,25.4896546 31.8411255,24.1159057 C30.4673767,22.742157 28.2440186,22.7416992 26.869812,24.115448 L19.9804688,31.005249 L17.7786255,28.8034057 C16.4053345,27.429657 14.1815186,27.4291992 12.807312,28.8034057 C11.4331055,30.1771546 11.4331055,32.4005127 12.807312,33.7747193 L17.494812,38.4617614 Z M14.4644166,30.4605103 C14.922638,30.0027466 15.6632995,30.0027466 16.1210632,30.4605103 L19.1514587,33.4909057 C19.6092224,33.9482116 20.3512573,33.9482116 20.8090209,33.4909057 L28.5269166,25.7730103 C28.985138,25.3152466 29.7253418,25.3152466 30.1840209,25.7730103 C30.6417846,26.230774 30.6417846,26.9714355 30.1835632,27.429657 L20.8085632,36.804657 C20.5870056,37.0262146 20.2931214,37.1484375 19.9804688,37.1484375 C19.6678161,37.1484375 19.3734741,37.0262146 19.1519166,36.804657 L14.4644166,32.117157 C14.0066529,31.6593933 14.006195,30.9187317 14.4644166,30.4605103 Z" id="Shape" fill="url(#linearGradient-4)"></path>
                            </g>
                        </g>
                    </g>
                </g>
            </g>
        </g>
    </g>
</svg>