<?xml version="1.0" encoding="UTF-8"?>
<svg width="54px" height="60px" viewBox="0 0 54 60" version="1.1" xmlns="http://www.w3.org/2000/svg" xmlns:xlink="http://www.w3.org/1999/xlink">
    <!-- Generator: Sketch 60 (88103) - https://sketch.com -->
    <title>support (3)</title>
    <desc>Created with Sketch.</desc>
    <defs>
        <linearGradient x1="50%" y1="0.174096505%" x2="50%" y2="100%" id="linearGradient-1">
            <stop stop-color="#F38600" offset="0.0580658784%"></stop>
            <stop stop-color="#E45200" offset="100%"></stop>
        </linearGradient>
        <linearGradient x1="50%" y1="0.11609804%" x2="50%" y2="100%" id="linearGradient-2">
            <stop stop-color="#F38600" offset="0.0580658784%"></stop>
            <stop stop-color="#E45200" offset="100%"></stop>
        </linearGradient>
        <linearGradient x1="50%" y1="0.11609804%" x2="50%" y2="100%" id="linearGradient-3">
            <stop stop-color="#F38600" offset="0.0580658784%"></stop>
            <stop stop-color="#E45200" offset="100%"></stop>
        </linearGradient>
    </defs>
    <g id="Page-1" stroke="none" stroke-width="1" fill="none" fill-rule="evenodd">
        <g id="Товар-детально" transform="translate(-713.000000, -1011.000000)" fill-rule="nonzero">
            <g id="Group-32" transform="translate(713.000000, 464.000000)">
                <g id="Group-31" transform="translate(0.000000, 463.000000)">
                    <g id="Group-30" transform="translate(0.000000, 84.000000)">
                        <g id="support-(3)-2">
                            <g id="support-(3)">
                                <path d="M39.84375,46.40625 C39.196875,46.40625 38.671875,46.93125 38.671875,47.578125 C38.671875,48.225 39.196875,48.75 39.84375,48.75 C40.490625,48.75 41.015625,48.225 41.015625,47.578125 C41.015625,46.93125 40.490625,46.40625 39.84375,46.40625 Z" id="Path" fill="url(#linearGradient-1)"></path>
                                <path d="M42.7291406,42.6167578 L37.1592188,40.7605078 L35.1596484,36.76125 C36.9610547,34.9277344 38.2117969,32.5017188 38.6335547,29.9712891 L38.8829297,28.4765625 L41.015625,28.4765625 C42.9541406,28.4765625 44.53125,26.8994531 44.53125,24.9609375 L44.53125,17.578125 C44.53125,7.88554688 36.6457031,0 26.953125,0 C17.2357031,0 9.375,7.86292969 9.375,17.578125 L9.375,24.9609375 C9.375,26.4885937 10.3548047,27.79125 11.71875,28.275 L11.71875,29.6484375 C11.71875,31.5869531 13.2958594,33.1640625 15.234375,33.1640625 L16.2635156,33.1640625 C16.7715234,34.2676172 17.4290625,35.2897266 18.2292188,36.2078906 C18.3951563,36.3986719 18.5682422,36.5835937 18.7455469,36.7634766 L16.7470313,40.7605078 L11.1769922,42.616875 C4.700625,44.7764063 0,51.5942578 0,58.828125 C0,59.4753516 0.524648438,60 1.171875,60 L52.734375,60 C53.3814844,60 53.90625,59.4753516 53.90625,58.828125 C53.90625,51.5942578 49.2057422,44.7764063 42.7291406,42.6167578 Z M42.1875,24.9609375 C42.1875,25.6071094 41.6617969,26.1328125 41.015625,26.1328125 L39.2271094,26.1328125 C39.525,23.8253906 39.7235156,21.3699609 39.8033203,18.9515625 C39.8056641,18.8833594 39.8075391,18.8170312 39.8096484,18.75 L42.1875,18.75 L42.1875,24.9609375 Z M12.890625,26.1328125 C12.2444531,26.1328125 11.71875,25.6071094 11.71875,24.9609375 L11.71875,18.75 L14.0974219,18.75 C14.1012891,18.8722266 14.1053906,18.9950391 14.1099609,19.1186719 C14.1100781,19.1228906 14.1103125,19.1269922 14.1104297,19.1312109 C14.1104297,19.1315625 14.1104297,19.1319141 14.1104297,19.1322656 C14.1924609,21.4844531 14.3883984,23.8761328 14.6794922,26.1326953 L12.890625,26.1326953 L12.890625,26.1328125 Z M15.234375,30.8203125 C14.5882031,30.8203125 14.0625,30.2946094 14.0625,29.6484375 L14.0625,28.4765625 L15.0232031,28.4765625 L15.2725781,29.9717578 C15.3201563,30.2559375 15.3786328,30.5390625 15.44625,30.8203125 L15.234375,30.8203125 Z M14.0644922,16.40625 L11.7632813,16.40625 C12.3568359,8.55222656 18.9113672,2.34375 26.953125,2.34375 C34.9591406,2.34375 41.5425,8.55140625 42.1428516,16.40625 L39.841875,16.40625 C39.7575,9.93433594 34.4872266,4.6875 28.0020703,4.6875 L25.9044141,4.6875 C19.419375,4.6875 14.14875,9.93433594 14.0644922,16.40625 Z M25.9042969,7.03125 L28.0019531,7.03125 C33.2530078,7.03125 37.5030469,11.3262891 37.5000016,16.5714844 C37.5000016,16.9402734 37.4970703,17.2613672 37.4908594,17.5535156 C37.4908594,17.5572656 37.4907422,17.5611328 37.4907422,17.565 L36.0249609,17.3555859 C32.0429297,16.7869922 28.2830859,14.9070703 25.4380078,12.0619922 C25.2181641,11.8422656 24.9201562,11.71875 24.609375,11.71875 C21.4621875,11.71875 18.4495312,13.1526562 16.4580469,15.5751562 C16.9488281,10.8033984 20.9827734,7.03125 25.9042969,7.03125 Z M17.8757812,30.8203125 C17.2891406,28.8687891 16.6178906,23.1266016 16.4695312,19.4469141 L18.0467578,17.3438672 C19.4953125,15.4130859 21.7489453,14.2134375 24.14625,14.0757422 C27.3005859,17.0776172 31.3812891,19.0599609 35.6935547,19.6756641 L37.4187891,19.9222266 C37.3034766,22.3696875 37.0678125,24.8257031 36.7301953,27.0844922 C36.7300781,27.0851953 36.7299609,27.0860156 36.7298438,27.0868359 C36.6225,27.8130469 36.5378906,28.2803906 36.3217969,29.5857422 C35.7011719,33.3082031 32.9235938,36.6744141 29.2569141,37.5911719 C27.7478906,37.9679297 26.158125,37.9678125 24.6499219,37.5911719 C22.3604297,37.0188281 20.2611328,35.4346875 18.9063281,33.1640625 L21.2953125,33.1640625 C21.7790625,34.5280078 23.0816016,35.5078125 24.609375,35.5078125 L26.953125,35.5078125 C28.8955078,35.5078125 30.46875,33.9346875 30.46875,31.9921875 C30.46875,30.0536719 28.8916406,28.4765625 26.953125,28.4765625 L24.609375,28.4765625 C23.0476172,28.4765625 21.7642969,29.4853125 21.2933203,30.8203125 L17.8757812,30.8203125 Z M24.5108203,39.9628125 C25.3146094,40.1321484 26.1341016,40.21875 26.953125,40.21875 C27.5942578,40.21875 28.2355078,40.1650781 28.8694922,40.0610156 L26.7987891,42.2508984 L24.5108203,39.9628125 Z M25.1876953,43.9545703 L21.4707422,47.8852734 C20.4474609,45.9266016 19.5682031,43.888125 18.8470313,41.80125 L20.2428516,39.0096094 L25.1876953,43.9545703 Z M33.4647656,38.6125781 L35.0589844,41.8011328 C34.3366406,43.8915234 33.4571484,45.9307031 32.4349219,47.8870313 L28.4566406,43.90875 L33.4647656,38.6125781 Z M23.4375,31.9921875 C23.4375,31.3451953 23.9622656,30.8203125 24.609375,30.8203125 L26.953125,30.8203125 C27.5992969,30.8203125 28.125,31.3460156 28.125,31.9921875 C28.125,32.6392969 27.6001172,33.1640625 26.953125,33.1640625 L24.609375,33.1640625 C23.9632031,33.1640625 23.4375,32.6383594 23.4375,31.9921875 Z M2.390625,57.65625 C2.85503906,51.8508984 6.71859375,46.5741797 11.9182031,44.8402734 L16.8510937,43.1963672 C17.7548437,45.6953906 18.8744531,48.1243359 20.1866016,50.4315234 C20.1888281,50.4355078 20.1909375,50.4394922 20.1931641,50.4433594 C20.1931641,50.4434766 20.1932812,50.4434766 20.1932812,50.4435937 C21.1519922,52.1298047 22.2310547,53.7775781 23.4009375,55.3419141 L24.8425781,57.65625 L2.390625,57.65625 Z M26.953125,56.6116406 L25.3638281,54.0601172 C25.3460156,54.0315234 25.3270313,54.00375 25.306875,53.9767969 C24.3578906,52.7109375 23.4726563,51.3870703 22.6664063,50.0320313 L26.8456641,45.6124219 L31.2493359,50.0160937 C30.4376953,51.3809766 29.5494141,52.7103516 28.5996094,53.9765625 C28.5421875,54.0530859 28.6236328,53.9325 26.953125,56.6116406 Z M29.0636719,57.65625 L30.5051953,55.3420312 C31.6802344,53.7717187 32.7670312,52.1107031 33.7353516,50.4046875 C33.7412109,50.394375 33.7467187,50.3838281 33.7525781,50.3735156 C33.7532812,50.3722266 33.7539844,50.3710547 33.7546875,50.3697656 C35.0501953,48.0846094 36.1580859,45.6767578 37.0551562,43.1963672 L41.9879297,44.8402734 C47.1876562,46.5741797 51.0512109,51.8508984 51.515625,57.65625 L29.0636719,57.65625 Z" id="Shape" fill="url(#linearGradient-2)"></path>
                                <path d="M47.9936719,52.9137891 C47.2105078,51.3461719 46.0633594,49.9535156 44.6762109,48.8864063 C44.1631641,48.4916016 43.4274609,48.5875781 43.0328906,49.100625 C42.6382031,49.6136719 42.7341797,50.349375 43.2471094,50.7440625 C44.355,51.5963672 45.2711719,52.7088281 45.8968359,53.9612109 C46.1866406,54.5411719 46.8909375,54.7746094 47.4689062,54.4858594 C48.0478125,54.1966406 48.2827734,53.4928125 47.9936719,52.9137891 Z" id="Path" fill="url(#linearGradient-3)"></path>
                            </g>
                        </g>
                    </g>
                </g>
            </g>
        </g>
    </g>
</svg>